<svg width="271" height="365" viewBox="0 0 271 365" fill="none" xmlns="http://www.w3.org/2000/svg">
<rect x="96.2341" y="0.533691" width="182.73" height="324.346" rx="81" transform="rotate(17.2596 96.2341 0.533691)" fill="#F5BB00"/>
<g clip-path="url(#clip0_283_4)">
<path d="M156.556 131C156.893 132.903 158.745 134.787 156.605 136.73C154.713 138.445 153.286 137.047 151.404 136.452C148.878 135.649 145.965 136.036 143.211 136.006C141.418 135.986 141.785 137.424 141.775 138.485C141.735 141.26 141.705 144.036 141.775 146.802C141.824 148.596 141.507 150.024 138.753 150.489C138.753 145.275 138.753 140.18 138.753 135.094C138.753 133.349 139.873 132.983 141.359 133.003C143.806 133.042 146.253 132.963 148.69 133.022C150.404 133.062 151.949 132.913 152.613 130.99H156.536L156.556 131Z" fill="white"/>
<path d="M87 200.631C90.2593 198.192 89.1399 194.613 88.9021 191.59C88.5356 186.97 90.2098 185.216 94.6282 186.058C96.9762 186.504 101.068 184.452 101.256 187.773C101.405 190.37 97.3526 188.874 95.2623 188.943C92.6469 189.032 91.7355 189.885 92.0327 192.383C92.3001 194.613 91.3194 197.082 92.5974 199.074C93.806 200.968 94.4103 202.594 92.6271 204.259C90.5665 206.182 88.7931 204.507 87.0099 203.565V200.621L87 200.631Z" fill="white"/>
<path d="M134.028 131C135.068 133.032 135.534 134.787 134.236 137.216C132.621 140.239 133.859 143.877 133.592 147.238C133.523 148.14 133.929 149.419 132.661 149.647C131.68 149.825 130.669 149.102 130.56 148.061C130.055 143.193 130.976 138.187 128.926 133.458C128.688 132.913 129.679 131.833 130.105 131C131.412 131 132.72 131 134.028 131Z" fill="white"/>
<path d="M87 178.068C88.8724 176.234 90.6556 175.114 93.2017 177.335C94.8759 178.802 97.2536 177.741 99.3043 177.989C99.9086 178.058 100.721 177.949 100.79 178.732C100.85 179.307 100.642 180.19 100.245 180.447C99.6411 180.834 98.6405 181.112 98.0164 180.883C94.3013 179.496 90.6952 185.126 87.0099 181.012V178.068H87Z" fill="white"/>
<path d="M140.863 186.722C139.655 183.025 138.159 179.416 136.881 175.739C136.148 173.617 135.355 172.219 132.571 172.219C129.787 172.219 128.945 173.637 128.202 175.748C126.905 179.416 125.458 183.045 124.23 186.732C123.873 187.793 122.139 189.221 123.903 190.043C125.359 190.727 127.796 191.213 128.658 189.221C129.55 187.129 130.927 187.288 132.591 187.317C134.206 187.218 135.434 187.367 136.356 189.34C137.227 191.203 139.704 190.727 141.17 190.053C142.894 189.25 141.21 187.773 140.863 186.722ZM133.374 183.402C133.096 183.709 131.878 183.689 131.62 183.382C130.065 181.488 131.709 179.942 132.571 178.276C133.027 180.011 135.117 181.508 133.374 183.402Z" fill="white"/>
<path d="M149.532 187.515C149.75 190.113 148.343 190.361 146.263 190.43C143.825 190.519 143.736 189.181 143.756 187.377C143.825 183.312 143.845 179.238 143.756 175.173C143.707 173.211 144.133 172.229 146.421 172.249C148.729 172.269 149.7 172.933 149.522 175.322C149.373 177.424 149.492 179.545 149.492 181.667C149.492 183.62 149.353 185.582 149.532 187.515Z" fill="white"/>
<path d="M160.35 162.584C157.13 159.62 152.474 158.192 149.631 154.296C148.67 152.978 146.57 152.67 144.697 152.541C141.161 152.294 139.09 156.199 136.693 156.199C134.335 156.19 132.274 152.224 128.569 152.343C121.565 154.703 116.572 160.224 112.421 165.637C109.548 169.384 107.854 174.539 105.516 179.04C101.732 186.336 110.014 191.55 109.934 198.658C109.895 201.781 113.669 204.309 117.137 205.26C118.841 205.736 119.762 206.331 120.673 207.966C124.081 214.123 130.224 215.104 135.207 210.247C136.94 208.551 137.396 209.107 138.783 210.475C142.627 214.271 147.798 214.47 151.325 210.415C153.881 207.471 157.487 205.538 159.548 202.663C163.491 197.181 168.365 190.866 168.672 184.69C169.058 177.017 166.542 168.294 160.35 162.584ZM165.333 183.56C165.105 188.913 160.301 195 157.15 200.571C156.209 202.227 154.594 202.465 153.505 200.145C153.049 199.173 152.157 198.251 151.236 197.677C149.988 196.903 148.432 194.98 147.065 196.854C145.757 198.628 147.947 199.183 149.066 199.957C151.018 201.295 151.979 203.04 151.127 205.409C150.215 207.927 148.294 209.335 145.718 209.83C143.39 210.276 141.527 209.473 140.368 207.362C139.902 206.509 139.576 205.567 139.278 204.646C138.942 203.555 138.783 202.365 137.267 202.296C135.573 202.207 135.266 203.347 134.8 204.685C133.731 207.778 132.007 210.425 128.183 209.949C125.805 209.652 123.883 208.323 123.19 205.845C122.506 203.377 123.259 201.374 125.458 199.937C126.568 199.213 128.856 198.797 127.608 196.953C126.34 195.089 124.745 196.814 123.408 197.567C122.982 197.805 122.645 198.192 122.229 198.44C120.475 199.501 120.654 203.734 116.948 201.612C113.521 199.649 111.767 196.804 112.005 192.859C113.095 190.698 111.678 189.577 110.45 188.18C106.883 184.155 107.022 180.15 111.064 176.67C112.847 175.154 113.709 173.736 113.659 171.377C113.61 169.057 114.68 166.955 116.374 165.27C118.108 163.555 119.673 162.554 121.02 165.766C121.545 167.015 122.556 168.66 124.309 167.55C126.082 166.44 124.408 165.399 123.844 164.348C122.179 161.275 122.774 158.648 125.706 156.765C128.916 154.703 131.809 155.515 133.641 158.658C135.89 162.524 137.505 163.149 139.803 158.658C141.18 155.952 143.756 154.742 146.827 156.328C149.73 157.835 151.404 160.016 150.107 163.476C149.661 164.655 148.561 166.053 150.235 166.836C151.85 167.6 152.276 165.905 152.979 164.844C155.278 161.384 157.893 164.051 158.874 165.478C162.609 170.911 165.571 178.009 165.333 183.56Z" fill="white"/>
<path d="M134.8 214.916C134.8 217.543 134.88 219.496 134.78 221.439C134.602 224.998 136.177 229.28 134.077 231.917C131.987 234.544 127.677 232.651 124.349 232.898C122.952 233.007 121.921 233.473 120.851 234.306C119.306 235.506 117.761 235.089 116.512 233.721C115.383 232.482 115.294 231.025 116.334 229.716C117.434 228.338 118.811 227.625 120.584 228.695C121.396 229.181 122.248 229.756 123.15 229.924C130.58 231.352 131.62 230.351 131.838 222.827C131.907 220.269 130.243 216.889 134.79 214.916H134.8Z" fill="white"/>
<path d="M178.737 179.763C176.855 179.129 172.853 181.151 172.813 178.098C172.783 175.421 176.726 177.057 178.856 176.869C182.868 176.512 184.523 171.922 182.205 166.608C181.749 165.577 180.857 164.705 181.184 163.486C181.719 161.503 183.096 160.234 185.117 160.76C187.198 161.295 188.882 163.178 187.495 165.141C185.672 167.709 185.93 170.306 185.9 173.022C185.83 180.289 186.851 179.744 178.737 179.763Z" fill="white"/>
<path d="M172.813 192.393C175.785 191.838 177.043 193.285 176.756 196.467C176.568 198.579 176.795 200.551 178.064 202.475C178.886 203.734 178.48 205.359 177.083 206.361C175.745 207.312 174.329 207.322 173.041 206.281C171.733 205.221 171.535 203.763 172.179 202.316C172.694 201.156 173.487 200.204 173.596 198.787C173.784 196.289 173.041 195.188 170.376 195.446C169.326 195.545 167.305 196.229 167.453 194.177C167.552 192.918 169.207 192.422 170.604 192.393C171.258 192.383 171.901 192.393 172.833 192.393H172.813Z" fill="white"/>
<path d="M106.952 170.683C105.12 174.301 102.237 173.508 99.8889 173.201C97.3131 172.864 98.3335 170.415 98.2047 168.789C98.066 167.015 98.1354 165.359 96.9862 163.704C96.0351 162.336 96.3125 160.581 97.8976 159.382C99.3044 158.321 100.672 158.48 101.91 159.53C103.356 160.77 103.257 162.266 102.574 163.962C100.305 169.602 100.543 169.959 106.952 170.693V170.683Z" fill="white"/>
<path d="M119.851 145.295C118.405 144.968 117.325 146.108 116.027 146.732C114.551 147.436 113.134 147.129 112.094 145.82C111.064 144.522 111.034 143.084 112.025 141.766C113.035 140.427 114.719 139.991 115.948 140.834C118.028 142.261 120.228 142.301 122.476 142.123C126.726 141.786 126.122 144.66 126.122 147.278C126.122 148.546 125.27 149.042 124.349 149.25C122.724 149.607 123.031 148.219 123.051 147.397C123.091 145.097 121.496 145.344 119.851 145.295Z" fill="white"/>
<path d="M147.362 220.249C147.362 218.663 147.105 217.126 148.759 216.69C151.186 216.046 150.017 218.187 150.503 219.089C152.009 221.855 154.297 220.893 156.16 219.823C158.141 218.693 159.815 218.375 161.321 220.219C162.351 221.478 162.331 223.015 161.232 224.254C159.815 225.86 158.091 225.83 156.457 224.611C154.832 223.411 153.009 223.758 151.275 223.848C148.402 223.986 146.847 223.074 147.362 220.239V220.249Z" fill="white"/>
<path d="M140.18 215.689C141.369 216.115 142.577 216.185 142.736 217.325C143.37 222.182 142.181 227.188 144.549 231.986C145.252 233.404 143.023 235.159 140.933 234.841C138.922 234.524 137.208 232.71 138.238 231.064C141.309 226.187 139.031 220.893 140.19 215.699L140.18 215.689Z" fill="white"/>
<path d="M170.901 172.408C170.772 172.368 169.811 172.378 169.326 171.892C168.771 171.327 168.86 170.177 169.573 169.721C172.308 167.976 171.317 166.053 169.98 164.09C168.761 162.296 169.038 160.71 170.663 159.392C171.991 158.311 173.467 158.45 174.665 159.52C175.983 160.7 176.627 162.257 175.28 163.803C173.675 165.647 174.21 167.798 174.2 169.85C174.18 171.724 173.407 172.556 170.901 172.408Z" fill="white"/>
<path d="M102.683 207.124C100.146 206.678 98.0561 205.27 99.2647 202.97C100.572 200.492 100.761 198.143 100.751 195.585C100.751 193.582 102.029 193.077 103.634 193.325C105.288 193.582 105.12 194.931 104.545 195.932C103.257 198.202 103.753 199.986 105.1 202.138C106.715 204.715 105.021 206.271 102.673 207.134L102.683 207.124Z" fill="white"/>
<path d="M155.793 142.926C157.616 142.896 158.696 143.62 159.28 144.849C159.855 146.068 159.805 147.357 158.795 148.457C157.685 149.667 156.219 150.232 154.921 149.24C152.771 147.605 150.8 147.099 148.343 148.586C147.402 149.151 146.074 148.973 145.896 147.357C145.757 146.118 146.065 144.938 147.501 144.859C150.513 144.7 153.623 145.126 155.793 142.936V142.926Z" fill="white"/>
<path d="M127.331 219.516C127.331 219.516 127.321 219.872 127.172 220.15C126.627 221.191 115.651 222.926 114.838 222.073C113.768 220.953 113.164 219.714 114.125 218.177C115.096 216.621 116.572 215.649 118.167 216.621C120.495 218.038 122.447 219.089 125.151 217.226C126.231 216.482 127.658 217.384 127.331 219.525V219.516Z" fill="white"/>
<path d="M187.901 186.574C187.237 188.725 185.632 190.737 183.74 189.528C180.976 187.773 178.242 188.001 175.379 187.862C174.576 187.823 173.259 188.457 173.15 186.901C173.051 185.483 173.873 184.938 175.27 184.918C178.133 184.879 180.857 185.037 183.661 183.362C185.811 182.073 187.465 184.145 187.901 186.574Z" fill="white"/>
<path d="M140.863 186.722C139.655 183.025 138.159 179.416 136.881 175.739C136.148 173.617 135.355 172.219 132.571 172.219C129.787 172.219 128.945 173.637 128.202 175.748C126.905 179.416 125.458 183.045 124.23 186.732C123.873 187.793 122.139 189.221 123.903 190.043C125.359 190.727 127.796 191.213 128.658 189.221C129.55 187.129 130.927 187.288 132.591 187.317C134.206 187.218 135.434 187.367 136.356 189.34C137.227 191.203 139.704 190.727 141.17 190.053C142.894 189.25 141.21 187.773 140.863 186.722ZM133.374 183.402C133.096 183.709 131.878 183.689 131.62 183.382C130.065 181.488 131.709 179.942 132.571 178.276C133.027 180.011 135.117 181.508 133.374 183.402Z" fill="#FEFEFE"/>
<path d="M146.263 190.43C143.825 190.519 143.736 189.181 143.756 187.377C143.825 183.312 143.845 179.238 143.756 175.173C143.707 173.211 144.133 172.229 146.421 172.249C148.729 172.269 149.7 172.933 149.522 175.322C149.373 177.424 149.492 179.545 149.492 181.667C149.492 183.62 149.353 185.582 149.532 187.515C149.75 190.113 148.343 190.361 146.263 190.43Z" fill="#FEFEFE"/>
<path d="M140.863 186.722C139.655 183.025 138.159 179.416 136.881 175.739C136.148 173.617 135.355 172.219 132.571 172.219C129.787 172.219 128.945 173.637 128.202 175.748C126.905 179.416 125.458 183.045 124.23 186.732C123.873 187.793 122.139 189.221 123.903 190.043C125.359 190.727 127.796 191.213 128.658 189.221C129.55 187.129 130.927 187.288 132.591 187.317C134.206 187.218 135.434 187.367 136.356 189.34C137.227 191.203 139.704 190.727 141.17 190.053C142.894 189.25 141.21 187.773 140.863 186.722ZM133.374 183.402C133.096 183.709 131.878 183.689 131.62 183.382C130.065 181.488 131.709 179.942 132.571 178.276C133.027 180.011 135.117 181.508 133.374 183.402Z" fill="white"/>
<path d="M146.263 190.43C143.825 190.519 143.736 189.181 143.756 187.377C143.825 183.312 143.845 179.238 143.756 175.173C143.707 173.211 144.133 172.229 146.421 172.249C148.729 172.269 149.7 172.933 149.522 175.322C149.373 177.424 149.492 179.545 149.492 181.667C149.492 183.62 149.353 185.582 149.532 187.515C149.75 190.113 148.343 190.361 146.263 190.43Z" fill="white"/>
</g>
<defs>
<clipPath id="clip0_283_4">
<rect width="101" height="104" fill="white" transform="translate(87 131)"/>
</clipPath>
</defs>
</svg>
