<svg width="105" height="104" viewBox="0 0 105 104" fill="none" xmlns="http://www.w3.org/2000/svg">
<g clip-path="url(#clip0_97_111)">
<path d="M54.4459 54.6496C53.1335 56.2982 54.0631 58.6443 52.2403 60.9361C51.2834 58.4632 51.8484 56.4069 50.454 54.8307C49.8252 54.1242 50.4905 53.1187 51.174 52.5208C51.894 51.8868 52.7507 51.8324 53.6074 52.394C54.4641 52.9647 54.9562 54.0155 54.4459 54.6496Z" fill="white"/>
<path d="M61.2355 47.9554C59.4401 47.0586 59.3672 46.0078 59.4036 44.5041C59.4492 42.2214 59.5494 39.522 56.8062 38.9785C53.5161 38.3353 48.3121 37.04 47.182 39.83C45.341 44.3773 41.0393 48.0913 40.6019 52.385C39.5538 62.6301 38.6606 66.181 51.3744 65.4201C51.6751 65.402 51.9759 65.4201 52.2766 65.4201C54.5277 65.4201 56.7697 65.3748 59.0208 65.4291C60.6066 65.4654 61.9737 65.0034 63.0947 63.9073C66.1205 60.9633 65.0086 49.8486 61.2355 47.9554ZM52.2857 40.6724C55.029 40.7358 57.4897 40.2829 57.4441 44.6128C57.3986 48.979 54.5368 47.1311 52.55 47.6021C50.6544 46.959 47.3187 49.2598 47.3825 44.5132C47.4372 40.6543 49.5151 40.6181 52.2857 40.6724ZM56.8518 63.3004C55.3662 63.1555 53.8624 63.2732 52.3587 63.2732C51.3106 63.2732 50.2625 63.2823 49.2144 63.2732C44.7183 63.2672 42.4702 61.063 42.4702 56.6606C42.4641 51.92 44.8702 49.5497 49.6883 49.5497C51.183 49.5497 52.6867 49.5588 54.1814 49.5497C62.5934 49.5497 62.3474 49.5588 62.6481 57.8019C62.8213 62.3402 60.9803 63.699 56.8518 63.3004Z" fill="white"/>
<path d="M103.742 49.3323C102.102 47.7924 99.796 47.5297 98.5201 49.1874C96.8796 51.3342 94.9475 51.0081 92.8969 51.0262C90.0443 51.0534 87.1461 50.7364 84.3391 51.0987C80.1558 51.6422 78.6612 49.9301 79.1077 45.8901C84.8403 44.9027 91.5116 47.8195 96.2234 42.1218C96.3966 41.9044 97.0892 42.0855 97.5358 42.1127C100.297 42.2486 101.947 40.7902 101.992 38.2085C102.038 36.0526 100.525 34.4855 98.274 34.4674C95.5946 34.4493 94.2457 35.9983 94.1819 38.7339C94.0999 42.1671 92.0949 43.7251 88.7592 43.7613C86.8089 43.7885 84.7674 43.4081 82.9082 43.8338C78.087 44.9661 77.3852 41.225 75.7812 38.3806C73.9949 35.2011 77.4764 34.7844 78.5427 33.172C79.4996 31.7046 81.0399 30.6085 82.3158 29.3403C84.8221 26.8583 87.3739 26.5322 90.0716 29.0776C91.8944 30.7987 93.8903 30.8712 95.6584 29.1138C97.2624 27.5196 97.3627 25.6263 95.7677 23.9143C94.0179 22.0483 91.8579 22.012 90.2174 23.7694C89.0327 25.0466 87.8752 25.5267 86.3167 25.3274C84.1568 25.0375 82.6257 25.9524 81.213 27.4924C79.3903 29.4762 77.367 31.2788 75.5078 33.2264C74.3868 34.3949 73.6303 35.2555 71.999 33.5706C70.3767 31.9038 71.3701 31.2335 72.4182 30.0559C75.8541 26.2151 81.4317 23.6607 80.5477 17.0842C80.5021 16.7219 81.295 16.2327 81.7052 15.816C83.6555 13.8594 83.7649 11.8303 81.6961 9.99146C80.0009 8.48776 78.087 8.54211 76.4556 10.1817C74.6602 11.9934 74.6146 14.0949 76.6106 15.6258C78.4333 17.0299 78.0779 18.7419 78.0414 20.4721C78.0232 21.5591 70.1853 30.0831 69.1464 30.2371C68.7545 30.3005 68.2988 30.1103 67.8887 29.9835C62.3201 28.2352 60.8346 26.1698 60.8346 20.2184C60.8346 19.3217 60.871 18.4249 60.8255 17.5281C60.6067 13.3884 61.828 10.6074 66.7039 10.6346C69.037 10.6437 70.2674 8.84104 70.2491 6.74854C70.2218 4.60169 68.6907 3.01646 66.5216 2.94399C64.4436 2.88964 62.794 3.99477 62.5206 6.36809C62.393 7.51851 63.1039 8.9588 61.9009 9.72877C58.1278 12.1383 58.9207 15.8704 58.8933 19.367C58.8751 21.5047 58.8842 23.6425 58.8842 25.8528C55.3238 25.2731 53.5435 23.4795 53.5435 20.4721C53.5435 17.9357 53.5162 15.3903 53.5527 12.8539C53.58 10.4082 53.179 8.0439 55.585 6.02386C57.1982 4.6651 56.6513 2.36425 54.865 0.942077C53.261 -0.344222 51.4565 -0.317047 49.9345 1.0689C48.2667 2.58166 48.0844 4.42958 49.3968 6.30468C50.1259 7.3464 51.5294 7.80838 51.4838 9.51137C51.3562 13.9953 51.3198 18.4883 51.4838 22.9632C51.5932 25.9706 49.2418 25.3093 47.7563 25.6082C45.25 26.1155 46.2525 23.9777 46.1705 22.936C45.7968 18.0897 47.6378 12.7181 42.5979 9.01315C42.3062 8.80481 42.5159 7.90802 42.525 7.32828C42.5797 4.57451 41.003 2.98929 38.4693 2.96211C36.364 2.93493 34.6962 4.45675 34.678 6.66701C34.6598 9.31208 36.3003 10.6708 39.0344 10.698C42.607 10.7343 43.9741 12.8811 44.0287 16.1421C44.0652 18.0807 43.7006 20.1007 44.1017 21.9577C45.0859 26.4597 41.6956 27.2478 38.8886 28.8783C35.6349 30.7806 35.1975 27.3837 33.5752 26.3691C32.2082 25.5176 31.2239 24.0864 30.0208 22.945C27.2776 20.3362 26.266 17.7636 29.4558 14.6203C31.1874 12.9083 30.9505 10.7433 29.1277 9.0675C27.5966 7.64533 25.7374 7.65438 24.2062 8.97692C22.3288 10.5803 22.2103 12.6003 23.7414 14.5479C24.4432 15.4356 25.9014 15.8613 25.5369 17.3469C24.5617 21.3055 27.3687 23.3164 29.7292 25.5901C31.1327 26.9398 32.4269 28.4163 33.9033 29.6755C35.4982 31.0342 34.4957 31.8223 33.557 32.9003C32.3722 34.25 31.634 33.5797 30.7135 32.6376C28.6173 30.4998 26.4209 28.4526 24.343 26.2967C23.2493 25.1553 22.1283 24.34 20.4423 24.5122C18.4463 24.7114 16.815 24.3853 15.3021 22.6371C13.8439 20.9612 11.6657 21.2602 10.1346 22.936C8.649 24.5665 8.59432 26.5141 10.1254 28.1627C11.6566 29.8113 13.7072 30.1556 15.3294 28.525C18.3187 25.5358 21.0073 25.8528 23.7414 28.679C26.029 31.0252 28.271 33.4166 30.4948 35.8171C30.595 35.9258 30.3398 36.3425 30.2669 36.6233C28.8907 41.6417 26.111 43.7704 20.9253 43.7704C19.5673 43.7704 18.2094 43.7976 16.8605 43.7613C13.2059 43.6617 10.5902 42.6743 10.7178 38.1632C10.7816 35.8624 9.05913 34.2862 6.54372 34.4674C4.58425 34.6123 3.14427 35.7265 2.98934 37.8643C2.80706 40.3825 4.11034 41.9859 6.58017 42.0493C8.36648 42.0855 9.84291 42.2758 10.9001 43.7795C12.1852 45.6183 14.0261 45.8086 16.0676 45.718C18.4737 45.6093 20.8888 45.6183 23.2858 45.727C24.3521 45.7814 26.3753 44.8937 25.6918 47.4753C25.2908 48.979 26.3115 51.3251 23.1764 51.0715C20.7795 50.8813 18.3552 51.1621 15.9583 50.999C12.4221 50.7545 8.62166 52.2038 5.57766 48.662C4.52957 47.4391 2.05062 48.0007 0.829371 49.7399C-0.32808 51.3795 -0.309853 53.1731 1.14835 54.6405C2.77061 56.2711 5.05817 56.4341 6.35233 54.8126C7.9837 52.7473 9.87937 52.9919 11.9209 52.9828C14.7735 52.9738 17.6534 53.2093 20.4878 52.9194C24.6073 52.5118 26.6761 53.6622 25.4184 58.3092C22.4746 58.3092 19.4215 58.6806 16.496 58.2186C12.8413 57.6298 11.21 60.3927 8.76748 61.8692C8.33914 62.1228 7.5918 61.8511 6.99941 61.8692C4.51134 61.9598 3.03491 63.2098 2.97111 65.7281C2.92554 68.0652 4.38375 69.4239 6.57106 69.5326C9.26874 69.6594 10.7543 68.038 10.7269 65.3748C10.6723 61.7424 12.8687 60.5014 15.9765 60.2658C18.0727 60.1118 20.2691 60.6101 22.2832 60.1662C27.2776 59.0701 27.8062 63.0921 29.2826 65.9092C30.6953 68.6177 27.6239 69.2156 26.5394 70.7012C25.5824 72.0146 24.2336 73.0473 23.0853 74.2249C20.4423 76.9424 17.7719 77.7577 14.6641 74.7775C12.8596 73.0473 10.7999 73.2013 9.11381 75.0583C7.74674 76.5892 7.72851 78.4008 9.0409 79.9498C10.654 81.834 12.6682 82.0242 14.5821 80.3937C15.6028 79.5241 16.3502 78.3193 17.9542 78.6726C21.1076 79.361 22.9577 77.4407 24.8442 75.4206C26.4756 73.6723 28.2437 72.0418 29.9753 70.3841C30.5586 69.8316 31.078 68.7264 32.0988 69.7772C32.8188 70.52 33.958 71.3896 33.9307 72.1596C33.8942 72.9477 32.5818 73.6361 31.9712 74.4695C29.6472 77.6218 25.0812 79.0802 24.7257 83.6729C24.5708 85.6204 24.6346 87.2781 22.7936 88.7909C21.1258 90.1587 21.4083 92.3508 23.0944 93.918C24.7622 95.4669 26.667 95.5032 28.3439 93.9633C29.9844 92.4414 30.4401 90.358 28.7631 88.7999C25.6007 85.8559 25.9379 83.2381 28.8178 80.4843C31.1874 78.2106 33.5752 75.946 35.9904 73.7176C36.1089 73.6089 36.5372 73.8354 36.8197 73.8988C41.568 75.022 44.0379 78.2106 44.0379 83.2018C44.0379 84.6965 44.047 86.1911 44.0379 87.6858C44.0105 91.1642 42.6617 93.3382 38.761 93.3292C36.2911 93.3201 34.7145 94.7513 34.6598 97.1699C34.6233 99.3983 36.2091 100.902 38.3235 101.038C40.6931 101.192 42.5705 99.6973 42.4338 97.2968C42.3062 95.168 43.1447 93.9089 44.5573 92.7585C45.8424 91.7168 46.2252 90.4486 46.1523 88.8362C46.0429 86.2998 46.0156 83.7453 46.1887 81.218C46.2616 80.1854 45.1862 78.0657 47.6105 78.3827C49.2509 78.6001 51.8119 78.1019 51.4838 81.3448C51.256 83.5642 51.5294 85.8288 51.42 88.0662C51.2378 91.6262 52.4134 95.3673 49.0778 98.4381C47.7381 99.6791 48.5036 101.88 50.1623 103.13C51.8393 104.39 53.6165 104.272 55.0838 102.886C56.7151 101.346 57.1435 99.0541 55.421 97.7316C53.1608 95.9833 53.58 93.9089 53.5527 91.753C53.5162 89.0626 53.817 86.336 53.4797 83.691C52.9603 79.669 54.4185 77.8755 58.6108 78.3193C59.8503 83.9356 56.6058 90.6479 62.466 95.2948C62.7576 95.5213 62.5024 96.4362 62.4933 97.025C62.4751 99.5976 63.9697 101.038 66.3302 101.056C68.4811 101.074 70.1398 99.6338 70.2127 97.4326C70.3038 94.7966 68.7089 93.3563 65.9748 93.302C62.1925 93.2386 60.7708 91.0645 60.8255 87.568C60.8528 85.7744 61.19 83.8993 60.7617 82.2054C59.5769 77.4225 63.3318 76.716 66.1844 75.0673C69.4016 73.1922 69.7388 76.7613 71.4339 77.7033C72.4455 78.265 73.1291 79.3792 74.0314 80.1672C77.3579 83.075 78.9346 86.0281 75.1615 89.8688C73.521 91.5265 74.1407 93.5737 75.8177 94.9959C77.3579 96.3003 79.1715 96.3456 80.7573 94.9687C82.4707 93.4831 82.7533 91.6986 81.4226 89.7964C80.6935 88.7456 79.1077 88.2111 79.4632 86.5353C80.1923 83.0478 78.0414 81.0187 75.7356 78.9987C74.3868 77.812 73.0835 76.5529 71.9261 75.176C71.0694 74.1615 68.7909 73.5636 70.9965 71.4077C72.9195 69.5326 73.7215 70.828 74.8698 71.9875C76.7746 73.8988 78.7158 75.7739 80.6115 77.6943C81.6869 78.7904 82.7897 79.6962 84.5031 79.506C86.5081 79.2795 88.1577 79.6328 89.6706 81.3811C91.1653 83.1022 93.2888 82.6764 94.829 81.0368C96.3966 79.361 96.351 77.4588 94.7743 75.8192C93.2068 74.1887 91.2291 73.8897 89.5704 75.5112C86.1071 78.89 83.2819 77.7305 80.4657 74.6959C78.9346 73.0473 77.2576 71.5345 75.6901 69.9312C75.0886 69.3152 74.2501 68.8442 74.405 67.7391C74.9063 64.0613 79.29 60.2387 83.0722 60.2387C84.2753 60.2387 85.4783 60.293 86.6813 60.2296C91.0741 60.0122 94.3825 60.8365 94.3278 66.3622C94.3095 68.5453 96.2508 69.7047 98.4837 69.5236C100.534 69.3515 101.847 67.9836 101.992 66.0179C102.157 63.8077 100.844 62.3855 98.6477 61.9235C97.39 61.6608 95.8224 62.5486 94.8928 61.1173C92.8149 57.9197 89.625 58.2367 86.4717 58.3002C83.9745 58.3545 81.4682 58.3092 79.0622 58.3092C78.5974 53.6803 80.6571 52.394 84.5669 52.9285C86.4899 53.1912 88.4767 52.9194 90.4271 52.9919C93.4437 53.1006 96.5151 52.2672 99.0943 55.1931C100.325 56.5881 102.813 56.108 104.189 54.1786C105.41 52.4575 105.246 50.7364 103.742 49.3323ZM98.4563 36.5418C99.4771 36.7048 99.9328 37.4386 99.869 38.4712C99.6867 39.4586 99.1581 40.1833 98.11 40.1289C96.9161 40.0746 96.1232 39.2955 96.2143 38.1089C96.3055 36.8769 97.2715 36.3515 98.4563 36.5418ZM91.1106 26.3057C91.2109 25.0647 92.0493 24.5031 93.2706 24.7386C94.2457 24.9198 94.8017 25.5629 94.7926 26.6318C94.4098 27.6464 93.8356 28.4526 92.5415 28.2171C91.4934 28.0268 91.0377 27.2478 91.1106 26.3057ZM77.4035 13.1347C77.2212 11.9571 78.1143 11.1238 79.2262 11.1238C80.0647 11.1238 80.9032 11.7216 80.9123 12.8358C80.8667 13.8504 80.3472 14.4935 79.3265 14.5932C78.2784 14.6928 77.5402 13.9953 77.4035 13.1347ZM66.558 5.15425C67.5697 5.2086 68.1438 5.8427 68.0983 7.10182C67.9889 8.14354 67.2416 8.80481 66.0659 8.64176C65.1727 8.51494 64.4619 7.87179 64.471 6.83007C64.4801 5.45318 65.4462 5.0999 66.558 5.15425ZM38.4146 8.71422C37.4577 8.62364 36.7377 7.9352 36.6921 6.92971C36.6375 5.61623 37.5944 5.2086 38.5149 5.03649C39.7453 5.2086 40.4379 5.75211 40.3923 6.80289C40.3468 7.98049 39.6906 8.83198 38.4146 8.71422ZM26.3024 13.7326C25.3728 13.5877 24.6346 12.9989 24.7075 11.9934C24.7986 10.852 25.5824 10.073 26.7125 10.1183C27.8882 10.1545 28.4624 10.9879 28.3804 12.4372C28.2892 13.479 27.4508 13.9047 26.3024 13.7326ZM12.8596 27.438C11.7295 27.1572 10.9457 26.6228 11.0915 25.3455C11.2373 24.0773 12.1305 23.5972 13.2332 23.7422C14.1446 23.869 14.8282 24.5303 14.8008 25.5539C14.7735 26.7858 13.9441 27.284 12.8596 27.438ZM6.76245 40.138C5.75993 40.147 5.05817 39.4495 4.97615 38.4893C4.86678 37.2574 5.605 36.5508 6.85359 36.5237C7.89256 36.4965 8.52141 37.04 8.62166 38.1179C8.59432 39.3227 8.01104 40.1289 6.76245 40.138ZM3.89161 53.7528C2.90732 53.7347 2.22378 53.155 2.15998 52.1766C2.07796 50.999 2.71593 50.3015 3.88249 50.22C4.95792 50.2925 5.605 50.7998 5.6688 51.8143C5.73259 53.001 5.14931 53.7619 3.89161 53.7528ZM6.99941 67.5126C5.8055 67.4582 4.94881 66.9328 4.95792 65.6647C4.95792 64.6682 5.65968 63.9526 6.61663 63.8801C7.82876 63.7896 8.57609 64.4871 8.60344 65.7462C8.63078 66.806 8.05661 67.3858 6.99941 67.5126ZM11.93 79.361C11.0186 79.3248 10.2621 78.8628 10.171 77.7849C10.0708 76.5257 10.7999 75.8101 11.9209 75.7286C13.0601 75.6471 13.8439 76.2902 13.9077 77.649C13.8712 78.8085 13.1056 79.4063 11.93 79.361ZM27.5054 91.2729C27.3323 92.3509 26.6761 93.1299 25.464 92.9306C24.6073 92.7857 23.8144 92.1787 23.8508 91.128C23.8964 89.8145 24.8351 89.3434 25.9652 89.4069C26.9404 89.4612 27.551 90.0953 27.5054 91.2729ZM39.0435 98.9182C37.7038 98.9816 36.92 98.5106 36.7195 97.5323C36.4734 96.2913 37.2754 95.476 38.3964 95.3039C39.6724 95.1046 40.3194 96.0105 40.3832 97.179C40.4379 98.2207 39.7088 98.737 39.0435 98.9182ZM66.1753 95.3492C67.4421 95.2043 67.9069 96.1282 68.0892 96.7351C68.0983 98.3022 67.4603 98.8367 66.4578 98.8548C65.2912 98.882 64.4436 98.3475 64.4801 97.0522C64.5166 96.0195 65.273 95.4398 66.1753 95.3492ZM78.5518 90.2402C79.6272 90.3671 80.01 91.1098 80.1467 92.07C79.8824 93.1752 79.3082 94.0085 78.0505 93.8727C77.0116 93.764 76.4556 92.8853 76.5012 91.9976C76.5559 90.8924 77.2394 90.0862 78.5518 90.2402ZM91.9399 76.6254C92.8058 76.5529 93.6989 77.178 93.8356 78.1653C93.9997 79.4063 93.1521 80.0042 92.0858 80.3484C91.1379 80.1763 90.3724 79.7687 90.2174 78.7451C90.0169 77.4497 90.8554 76.716 91.9399 76.6254ZM50.6454 3.69584C50.7547 2.69036 51.4747 2.10156 52.3679 2.07438C53.5071 2.05627 54.3364 2.79906 54.3456 3.95854C54.3456 5.15425 53.5071 5.72494 52.3314 5.78834C51.1831 5.55283 50.5087 4.93685 50.6454 3.69584ZM54.3273 100.268C54.1177 101.373 53.2975 102.062 52.1582 101.898C51.2833 101.763 50.5633 101.047 50.6454 99.9781C50.7456 98.6827 51.5841 98.1483 52.778 98.3113C53.744 98.4472 54.3729 99.0813 54.3273 100.268ZM52.3496 76.7613C38.6607 76.7069 27.3323 65.402 27.4143 51.8868C27.4963 38.3535 38.9797 27.1029 52.5866 27.2478C66.3302 27.3837 77.6495 38.6886 77.4855 52.1223C77.3214 65.7734 66.0568 76.8156 52.3496 76.7613ZM96.2508 65.3567C96.4239 64.469 97.1713 63.7715 98.2011 63.862C99.4771 63.9889 100.006 64.9038 99.8507 66.0632C99.714 67.0506 99.0123 67.5941 97.8184 67.4854C96.7065 67.2952 96.0138 66.5433 96.2508 65.3567ZM100.908 53.7981C99.7687 53.7981 99.3039 53.0915 99.2674 52.1404C99.2128 50.9447 99.7778 50.1838 101.108 50.211C102.22 50.2381 102.612 50.9628 102.867 51.9139C102.703 53.01 102.211 53.789 100.908 53.7981Z" fill="white"/>
<path d="M54.4459 54.6496C53.1335 56.2982 54.0631 58.6443 52.2403 60.9361C51.2834 58.4632 51.8484 56.4069 50.454 54.8307C49.8252 54.1242 50.4905 53.1187 51.174 52.5208C51.894 51.8868 52.7507 51.8324 53.6074 52.394C54.4641 52.9647 54.9562 54.0155 54.4459 54.6496Z" fill="#FEFEFE"/>
<path d="M61.2355 47.9554C59.4401 47.0586 59.3672 46.0078 59.4036 44.5041C59.4492 42.2214 59.5494 39.522 56.8062 38.9785C53.5161 38.3353 48.3121 37.04 47.182 39.83C45.341 44.3773 41.0393 48.0913 40.6019 52.385C39.5538 62.6301 38.6606 66.181 51.3744 65.4201C51.6751 65.402 51.9759 65.4201 52.2766 65.4201C54.5277 65.4201 56.7697 65.3748 59.0208 65.4291C60.6066 65.4654 61.9737 65.0034 63.0947 63.9073C66.1205 60.9633 65.0086 49.8486 61.2355 47.9554ZM52.2857 40.6724C55.029 40.7358 57.4897 40.2829 57.4441 44.6128C57.3986 48.979 54.5368 47.1311 52.55 47.6021C50.6544 46.959 47.3187 49.2598 47.3825 44.5132C47.4372 40.6543 49.5151 40.6181 52.2857 40.6724ZM56.8518 63.3004C55.3662 63.1555 53.8624 63.2732 52.3587 63.2732C51.3106 63.2732 50.2625 63.2823 49.2144 63.2732C44.7183 63.2672 42.4702 61.063 42.4702 56.6606C42.4641 51.92 44.8702 49.5497 49.6883 49.5497C51.183 49.5497 52.6867 49.5588 54.1814 49.5497C62.5934 49.5497 62.3474 49.5588 62.6481 57.8019C62.8213 62.3402 60.9803 63.699 56.8518 63.3004Z" fill="#FEFEFE"/>
<path d="M54.4459 54.6496C53.1335 56.2982 54.0631 58.6443 52.2403 60.9361C51.2834 58.4632 51.8484 56.4069 50.454 54.8307C49.8252 54.1242 50.4905 53.1187 51.174 52.5208C51.894 51.8868 52.7507 51.8324 53.6074 52.394C54.4641 52.9647 54.9562 54.0155 54.4459 54.6496Z" fill="white"/>
<path d="M61.2355 47.9554C59.4401 47.0586 59.3672 46.0078 59.4036 44.5041C59.4492 42.2214 59.5494 39.522 56.8062 38.9785C53.5161 38.3353 48.3121 37.04 47.182 39.83C45.341 44.3773 41.0393 48.0913 40.6019 52.385C39.5538 62.6301 38.6606 66.181 51.3744 65.4201C51.6751 65.402 51.9759 65.4201 52.2766 65.4201C54.5277 65.4201 56.7697 65.3748 59.0208 65.4291C60.6066 65.4654 61.9737 65.0034 63.0947 63.9073C66.1205 60.9633 65.0086 49.8486 61.2355 47.9554ZM52.2857 40.6724C55.029 40.7358 57.4897 40.2829 57.4441 44.6128C57.3986 48.979 54.5368 47.1311 52.55 47.6021C50.6544 46.959 47.3187 49.2598 47.3825 44.5132C47.4372 40.6543 49.5151 40.6181 52.2857 40.6724ZM56.8518 63.3004C55.3662 63.1555 53.8624 63.2732 52.3587 63.2732C51.3106 63.2732 50.2625 63.2823 49.2144 63.2732C44.7183 63.2672 42.4702 61.063 42.4702 56.6606C42.4641 51.92 44.8702 49.5497 49.6883 49.5497C51.183 49.5497 52.6867 49.5588 54.1814 49.5497C62.5934 49.5497 62.3474 49.5588 62.6481 57.8019C62.8213 62.3402 60.9803 63.699 56.8518 63.3004Z" fill="white"/>
<path d="M54.4459 54.6496C53.1335 56.2982 54.0631 58.6443 52.2403 60.9361C51.2834 58.4632 51.8484 56.4069 50.454 54.8307C49.8252 54.1242 50.4905 53.1187 51.174 52.5208C51.894 51.8868 52.7507 51.8324 53.6074 52.394C54.4641 52.9647 54.9562 54.0155 54.4459 54.6496Z" fill="#FBFBFB"/>
<path d="M54.4459 54.6496C53.1335 56.2982 54.0631 58.6443 52.2403 60.9361C51.2834 58.4632 51.8484 56.4069 50.454 54.8307C49.8252 54.1242 50.4905 53.1187 51.174 52.5208C51.894 51.8868 52.7507 51.8324 53.6074 52.394C54.4641 52.9647 54.9562 54.0155 54.4459 54.6496Z" fill="white"/>
</g>
<defs>
<clipPath id="clip0_97_111">
<rect width="105" height="104" fill="white"/>
</clipPath>
</defs>
</svg>
