<svg width="270" height="365" viewBox="0 0 270 365" fill="none" xmlns="http://www.w3.org/2000/svg">
<rect x="96.2341" y="0.533691" width="181.816" height="324.346" rx="81" transform="rotate(17.2596 96.2341 0.533691)" fill="#D76A03"/>
<g clip-path="url(#clip0_283_5)">
<path d="M90.1329 173.686H89.5889V200.969H90.1329V173.686Z" fill="white"/>
<path d="M95.7815 178.479V195.657C95.5458 195.666 95.301 195.675 95.0562 195.675V178.416C95.301 178.443 95.5458 178.461 95.7815 178.479Z" fill="white"/>
<path d="M104.359 187.537C104.359 192.33 106.199 198.554 103.887 201.543C101.095 205.161 94.7842 206.036 89.9878 208.095C89.7158 208.214 89.4529 208.396 89.1718 208.441C88.2289 208.605 87.0139 209.426 86.5787 207.876C86.2614 206.746 87.431 206.391 88.1836 206.072C91.7559 204.55 95.3191 202.974 98.9821 201.716C101.312 200.924 102.237 199.775 102.165 197.197C101.965 190.599 101.956 183.983 102.165 177.386C102.246 174.789 101.222 173.668 98.9912 172.793C95.2466 171.326 91.6017 169.595 87.9297 167.936C87.1046 167.563 86.1707 166.97 86.6241 165.931C87.0865 164.865 88.1201 165.248 88.9452 165.613C93.5964 167.626 98.2205 169.704 102.89 171.681C104.667 172.438 104.667 173.832 104.649 175.381C104.613 179.436 104.64 183.491 104.64 187.537H104.35H104.359Z" fill="white"/>
<path d="M174.4 178.334V195.702C174.672 195.72 174.953 195.738 175.225 195.757V178.343C174.953 178.343 174.672 178.343 174.4 178.334ZM179.731 173.559V201.015C179.994 201.015 180.257 201.015 180.511 201.005V173.549C180.257 173.549 179.994 173.559 179.731 173.559ZM183.702 207.794C183.693 206.327 182.252 206.09 181.1 205.607C177.8 204.24 174.554 202.737 171.181 201.58C168.887 200.796 167.917 199.702 167.999 197.105C168.207 190.544 168.207 183.956 168.008 177.386C167.926 174.816 168.914 173.659 171.136 172.784C174.871 171.317 178.543 169.695 182.134 167.918C183.72 167.134 184.654 166.059 182.95 165.394H182.941C182.641 165.275 182.27 165.175 181.807 165.084C177.337 167.116 172.904 169.248 168.37 171.144C166.348 171.991 165.315 172.994 165.36 175.399C165.505 183.336 165.405 191.273 165.433 199.219C165.433 200.349 165.025 201.826 166.493 202.345C172.206 204.395 177.428 207.785 183.593 208.569M183.702 207.794C183.693 206.327 182.252 206.09 181.1 205.607C177.8 204.24 174.554 202.737 171.181 201.58C168.887 200.796 167.917 199.702 167.999 197.105C168.207 190.544 168.207 183.956 168.008 177.386C167.926 174.816 168.914 173.659 171.136 172.784C174.871 171.317 178.543 169.695 182.134 167.918C183.72 167.134 184.654 166.059 182.95 165.394H182.941C182.641 165.275 182.27 165.175 181.807 165.084C177.337 167.116 172.904 169.248 168.37 171.144C166.348 171.991 165.315 172.994 165.36 175.399C165.505 183.336 165.405 191.273 165.433 199.219C165.433 200.349 165.025 201.826 166.493 202.345C172.206 204.395 177.428 207.785 183.593 208.569M179.731 173.559V201.015C179.994 201.015 180.257 201.015 180.511 201.005V173.549C180.257 173.549 179.994 173.559 179.731 173.559ZM174.4 178.334V195.702C174.672 195.72 174.953 195.738 175.225 195.757V178.343C174.953 178.343 174.672 178.343 174.4 178.334ZM174.4 178.334V195.702C174.672 195.72 174.953 195.738 175.225 195.757V178.343C174.953 178.343 174.672 178.343 174.4 178.334ZM179.731 173.559V201.015C179.994 201.015 180.257 201.015 180.511 201.005V173.549C180.257 173.549 179.994 173.559 179.731 173.559ZM183.702 207.794C183.693 206.327 182.252 206.09 181.1 205.607C177.8 204.24 174.554 202.737 171.181 201.58C168.887 200.796 167.917 199.702 167.999 197.105C168.207 190.544 168.207 183.956 168.008 177.386C167.926 174.816 168.914 173.659 171.136 172.784C174.871 171.317 178.543 169.695 182.134 167.918C183.72 167.134 184.654 166.059 182.95 165.394H182.941C182.641 165.275 182.27 165.175 181.807 165.084C177.337 167.116 172.904 169.248 168.37 171.144C166.348 171.991 165.315 172.994 165.36 175.399C165.505 183.336 165.405 191.273 165.433 199.219C165.433 200.349 165.025 201.826 166.493 202.345C172.206 204.395 177.428 207.785 183.593 208.569M183.702 207.794C183.693 206.327 182.252 206.09 181.1 205.607C177.8 204.24 174.554 202.737 171.181 201.58C168.887 200.796 167.917 199.702 167.999 197.105C168.207 190.544 168.207 183.956 168.008 177.386C167.926 174.816 168.914 173.659 171.136 172.784C174.871 171.317 178.543 169.695 182.134 167.918C183.72 167.134 184.654 166.059 182.95 165.394H182.941C182.641 165.275 182.27 165.175 181.807 165.084C177.337 167.116 172.904 169.248 168.37 171.144C166.348 171.991 165.315 172.994 165.36 175.399C165.505 183.336 165.405 191.273 165.433 199.219C165.433 200.349 165.025 201.826 166.493 202.345C172.206 204.395 177.428 207.785 183.593 208.569M179.731 173.559V201.015C179.994 201.015 180.257 201.015 180.511 201.005V173.549C180.257 173.549 179.994 173.559 179.731 173.559ZM174.4 178.334V195.702C174.672 195.72 174.953 195.738 175.225 195.757V178.343C174.953 178.343 174.672 178.343 174.4 178.334ZM174.4 178.334V195.702C174.672 195.72 174.953 195.738 175.225 195.757V178.343C174.953 178.343 174.672 178.343 174.4 178.334ZM179.731 173.559V201.015C179.994 201.015 180.257 201.015 180.511 201.005V173.549C180.257 173.549 179.994 173.559 179.731 173.559ZM183.702 207.794C183.693 206.327 182.252 206.09 181.1 205.607C177.8 204.24 174.554 202.737 171.181 201.58C168.887 200.796 167.917 199.702 167.999 197.105C168.207 190.544 168.207 183.956 168.008 177.386C167.926 174.816 168.914 173.659 171.136 172.784C174.871 171.317 178.543 169.695 182.134 167.918C183.72 167.134 184.654 166.059 182.95 165.394H182.941C182.641 165.275 182.27 165.175 181.807 165.084C177.337 167.116 172.904 169.248 168.37 171.144C166.348 171.991 165.315 172.994 165.36 175.399C165.505 183.336 165.405 191.273 165.433 199.219C165.433 200.349 165.025 201.826 166.493 202.345C172.206 204.395 177.428 207.785 183.593 208.569M183.702 207.794C183.693 206.327 182.252 206.09 181.1 205.607C177.8 204.24 174.554 202.737 171.181 201.58C168.887 200.796 167.917 199.702 167.999 197.105C168.207 190.544 168.207 183.956 168.008 177.386C167.926 174.816 168.914 173.659 171.136 172.784C174.871 171.317 178.543 169.695 182.134 167.918C183.72 167.134 184.654 166.059 182.95 165.394H182.941C182.641 165.275 182.27 165.175 181.807 165.084C177.337 167.116 172.904 169.248 168.37 171.144C166.348 171.991 165.315 172.994 165.36 175.399C165.505 183.336 165.405 191.273 165.433 199.219C165.433 200.349 165.025 201.826 166.493 202.345C172.206 204.395 177.428 207.785 183.593 208.569M180.511 201.005V173.549C180.257 173.549 179.994 173.559 179.731 173.559V201.015C179.994 201.015 180.257 201.015 180.511 201.005ZM175.225 195.757V178.343C174.953 178.343 174.672 178.343 174.4 178.334V195.702C174.672 195.72 174.953 195.738 175.225 195.757ZM187.891 169.731C187.891 162.651 186.83 160.974 180.139 158.404C172.686 155.543 164.87 154.222 156.955 153.584C153.619 153.311 150.844 152.609 148.151 150.085C140.898 143.287 128.893 143.314 121.522 150.103C118.838 152.572 116.082 153.292 112.718 153.611C103.787 154.468 94.9201 155.771 86.7418 159.862C83.4959 161.494 81.8548 163.836 82.009 167.708C82.2628 174.014 82.0815 180.329 82.0724 186.635V202.409C82.0815 211.904 83.2692 213.572 92.2545 216.533C93.6689 216.998 95.1286 217.344 96.5702 217.709C114.813 222.229 133.363 222.065 151.896 220.935C162.014 220.315 172.142 219.03 181.653 214.966C185.942 213.134 188.118 210.373 187.991 205.325C187.683 193.469 187.9 181.596 187.891 169.731ZM146.692 152.317H123C130.344 146.048 139.32 146.066 146.692 152.317ZM98.5105 215.74C103.307 213.499 107.605 213.499 111.576 212.232C117.442 210.346 122.755 207.731 125.149 201.552C125.91 199.575 126.754 199.939 128.114 200.623C132.711 202.946 137.326 202.81 141.886 200.532C143.065 199.939 143.736 199.602 144.461 201.334C147.589 208.824 154.299 211.312 161.443 213.034C164.444 213.754 167.581 213.954 171.254 215.768C146.746 220.215 123.118 220.278 98.5105 215.74ZM114.269 177.076C114.341 176.165 116.336 175.336 114.387 174.342C111.177 172.119 113.108 168.993 113.317 166.396C113.489 164.236 115.955 165.029 117.46 165.02C129.102 164.965 140.735 165.093 152.367 164.92C155.776 164.874 156.892 166.068 156.62 169.358C156.384 172.192 156.339 175.071 156.629 177.887C157.01 181.632 155.378 182.708 151.959 182.334C150.191 182.143 148.36 182.115 146.601 182.343C143.4 182.753 141.478 181.596 139.81 178.725C136.836 173.613 132.656 173.568 129.945 178.716C128.241 181.96 126.137 182.817 122.873 182.471C121.105 182.279 119.301 182.452 117.506 182.434C112.537 182.398 111.975 181.459 114.269 177.076ZM119.264 185.678C120.117 183.719 123.354 184.767 125.394 185.022C128.884 185.46 130.072 183.373 131.459 180.94C134.016 176.465 135.666 176.42 138.06 181.058C139.656 184.138 141.596 185.56 145.078 185.049C146.945 184.776 148.886 185.004 151.316 185.004C148.94 191.082 145.631 195.729 140.182 198.436C135.249 200.887 130.553 199.83 126.409 196.431C124.804 195.119 123.399 193.515 122.148 191.857C120.724 189.979 118.403 187.647 119.264 185.678ZM185.216 208.049C185.216 208.56 184.808 209.079 184.573 209.589C180.311 214.036 176.449 214.975 171.19 212.742C167.98 211.385 164.517 211.166 161.189 210.364C156.783 209.316 152.558 207.831 149.339 204.432C145.984 200.887 145.984 198.563 148.886 194.745C150.237 192.968 151.47 191.064 152.476 189.068C153.546 186.954 154.471 185.277 157.046 184.193C161.389 182.352 161.561 174.278 160.41 169.877C159.276 165.503 155.668 163.216 154.444 159.325C154.126 158.304 153.673 157.129 152.349 157.448C150.481 157.903 151.841 159.097 152.077 159.89C152.685 162.004 151.805 162.45 149.856 162.441C139.103 162.378 128.349 162.405 117.324 162.405C117.524 161.384 117.741 160.683 117.778 159.972C117.832 159.106 119.056 157.812 117.252 157.493C116.019 157.284 115.665 158.395 115.148 159.389C113.163 163.207 110.207 166.451 108.665 170.57C108.402 171.262 108.176 171.9 108.094 172.62C107.532 177.468 110.134 182.516 114.686 184.949C115.792 185.551 115.991 186.462 116.417 187.382C117.687 190.107 118.856 192.996 121.114 194.991C124.342 197.853 123.19 200.586 121.232 203.247C118.122 207.475 113.471 209.198 108.602 210.328C104.395 211.312 100.17 212.032 96.126 213.799C91.4928 215.841 84.6383 210.783 84.6293 205.671C84.6111 193.506 84.8922 181.332 84.4933 169.175C84.3391 164.473 86.2885 162.286 90.1872 160.865C99.118 157.612 108.43 156.236 117.832 155.57C136.392 154.249 154.897 154.441 173.112 158.951C176.821 159.881 180.683 160.673 183.575 163.562C185.28 164.328 185.198 165.931 185.207 167.371C185.253 180.931 185.253 194.49 185.216 208.049ZM183.702 207.794C183.693 206.327 182.252 206.09 181.1 205.607C177.8 204.24 174.554 202.737 171.181 201.58C168.887 200.796 167.917 199.702 167.999 197.105C168.207 190.544 168.207 183.956 168.008 177.386C167.926 174.816 168.914 173.659 171.136 172.784C174.871 171.317 178.543 169.695 182.134 167.918C183.72 167.134 184.654 166.059 182.95 165.394H182.941C182.641 165.275 182.27 165.175 181.807 165.084C177.337 167.116 172.904 169.248 168.37 171.144C166.348 171.991 165.315 172.994 165.36 175.399C165.505 183.336 165.405 191.273 165.433 199.219C165.433 200.349 165.025 201.826 166.493 202.345C172.206 204.395 177.428 207.785 183.593 208.569M179.731 201.015C179.994 201.015 180.257 201.015 180.511 201.005V173.549C180.257 173.549 179.994 173.559 179.731 173.559V201.015ZM174.4 195.702C174.672 195.72 174.953 195.738 175.225 195.757V178.343C174.953 178.343 174.672 178.343 174.4 178.334V195.702ZM174.4 178.334V195.702C174.672 195.72 174.953 195.738 175.225 195.757V178.343C174.953 178.343 174.672 178.343 174.4 178.334ZM179.731 173.559V201.015C179.994 201.015 180.257 201.015 180.511 201.005V173.549C180.257 173.549 179.994 173.559 179.731 173.559ZM183.702 207.794C183.693 206.327 182.252 206.09 181.1 205.607C177.8 204.24 174.554 202.737 171.181 201.58C168.887 200.796 167.917 199.702 167.999 197.105C168.207 190.544 168.207 183.956 168.008 177.386C167.926 174.816 168.914 173.659 171.136 172.784C174.871 171.317 178.543 169.695 182.134 167.918C183.72 167.134 184.654 166.059 182.95 165.394H182.941C182.641 165.275 182.27 165.175 181.807 165.084C177.337 167.116 172.904 169.248 168.37 171.144C166.348 171.991 165.315 172.994 165.36 175.399C165.505 183.336 165.405 191.273 165.433 199.219C165.433 200.349 165.025 201.826 166.493 202.345C172.206 204.395 177.428 207.785 183.593 208.569M179.731 173.559V201.015C179.994 201.015 180.257 201.015 180.511 201.005V173.549C180.257 173.549 179.994 173.559 179.731 173.559ZM174.4 178.334V195.702C174.672 195.72 174.953 195.738 175.225 195.757V178.343C174.953 178.343 174.672 178.343 174.4 178.334ZM174.4 178.334V195.702C174.672 195.72 174.953 195.738 175.225 195.757V178.343C174.953 178.343 174.672 178.343 174.4 178.334ZM179.731 173.559V201.015C179.994 201.015 180.257 201.015 180.511 201.005V173.549C180.257 173.549 179.994 173.559 179.731 173.559ZM183.702 207.794C183.693 206.327 182.252 206.09 181.1 205.607C177.8 204.24 174.554 202.737 171.181 201.58C168.887 200.796 167.917 199.702 167.999 197.105C168.207 190.544 168.207 183.956 168.008 177.386C167.926 174.816 168.914 173.659 171.136 172.784C174.871 171.317 178.543 169.695 182.134 167.918C183.72 167.134 184.654 166.059 182.95 165.394H182.941C182.641 165.275 182.27 165.175 181.807 165.084C177.337 167.116 172.904 169.248 168.37 171.144C166.348 171.991 165.315 172.994 165.36 175.399C165.505 183.336 165.405 191.273 165.433 199.219C165.433 200.349 165.025 201.826 166.493 202.345C172.206 204.395 177.428 207.785 183.593 208.569M183.702 207.794C183.693 206.327 182.252 206.09 181.1 205.607C177.8 204.24 174.554 202.737 171.181 201.58C168.887 200.796 167.917 199.702 167.999 197.105C168.207 190.544 168.207 183.956 168.008 177.386C167.926 174.816 168.914 173.659 171.136 172.784C174.871 171.317 178.543 169.695 182.134 167.918C183.72 167.134 184.654 166.059 182.95 165.394H182.941C182.641 165.275 182.27 165.175 181.807 165.084C177.337 167.116 172.904 169.248 168.37 171.144C166.348 171.991 165.315 172.994 165.36 175.399C165.505 183.336 165.405 191.273 165.433 199.219C165.433 200.349 165.025 201.826 166.493 202.345C172.206 204.395 177.428 207.785 183.593 208.569M179.731 173.559V201.015C179.994 201.015 180.257 201.015 180.511 201.005V173.549C180.257 173.549 179.994 173.559 179.731 173.559ZM174.4 178.334V195.702C174.672 195.72 174.953 195.738 175.225 195.757V178.343C174.953 178.343 174.672 178.343 174.4 178.334ZM174.4 178.334V195.702C174.672 195.72 174.953 195.738 175.225 195.757V178.343C174.953 178.343 174.672 178.343 174.4 178.334ZM179.731 173.559V201.015C179.994 201.015 180.257 201.015 180.511 201.005V173.549C180.257 173.549 179.994 173.559 179.731 173.559ZM183.702 207.794C183.693 206.327 182.252 206.09 181.1 205.607C177.8 204.24 174.554 202.737 171.181 201.58C168.887 200.796 167.917 199.702 167.999 197.105C168.207 190.544 168.207 183.956 168.008 177.386C167.926 174.816 168.914 173.659 171.136 172.784C174.871 171.317 178.543 169.695 182.134 167.918C183.72 167.134 184.654 166.059 182.95 165.394H182.941C182.641 165.275 182.27 165.175 181.807 165.084C177.337 167.116 172.904 169.248 168.37 171.144C166.348 171.991 165.315 172.994 165.36 175.399C165.505 183.336 165.405 191.273 165.433 199.219C165.433 200.349 165.025 201.826 166.493 202.345C172.206 204.395 177.428 207.785 183.593 208.569M183.702 207.794C183.693 206.327 182.252 206.09 181.1 205.607C177.8 204.24 174.554 202.737 171.181 201.58C168.887 200.796 167.917 199.702 167.999 197.105C168.207 190.544 168.207 183.956 168.008 177.386C167.926 174.816 168.914 173.659 171.136 172.784C174.871 171.317 178.543 169.695 182.134 167.918C183.72 167.134 184.654 166.059 182.95 165.394H182.941C182.641 165.275 182.27 165.175 181.807 165.084C177.337 167.116 172.904 169.248 168.37 171.144C166.348 171.991 165.315 172.994 165.36 175.399C165.505 183.336 165.405 191.273 165.433 199.219C165.433 200.349 165.025 201.826 166.493 202.345C172.206 204.395 177.428 207.785 183.593 208.569M179.731 173.559V201.015C179.994 201.015 180.257 201.015 180.511 201.005V173.549C180.257 173.549 179.994 173.559 179.731 173.559ZM174.4 178.334V195.702C174.672 195.72 174.953 195.738 175.225 195.757V178.343C174.953 178.343 174.672 178.343 174.4 178.334Z" fill="white"/>
<path d="M186.214 234.439C186.314 235.56 186.241 236.79 184.899 236.854C183.467 236.927 183.548 235.615 183.458 234.558C183.059 229.528 181.572 224.917 178.344 220.935C177.827 220.297 176.186 219.723 177.365 218.584C178.725 217.271 179.795 218.456 180.638 219.531C184.083 223.896 185.597 229.008 186.214 234.439Z" fill="white"/>
<path d="M93.2611 218.821C88.8002 223.596 86.461 228.808 86.3612 234.922C86.3431 235.897 86.0529 236.863 85.0284 236.982C83.8316 237.128 83.623 236.089 83.6412 235.159C83.8134 229.109 85.6812 223.687 89.7069 219.112C90.0514 218.72 90.6861 218.474 91.221 218.365C91.6109 218.283 92.0733 218.538 93.252 218.811L93.2611 218.821Z" fill="white"/>
<path d="M90.1329 173.686H89.5889V200.969H90.1329V173.686Z" fill="white"/>
<path d="M95.7815 178.479V195.657C95.5458 195.666 95.301 195.675 95.0562 195.675V178.416C95.301 178.443 95.5458 178.461 95.7815 178.479Z" fill="white"/>
<path d="M104.359 187.537C104.359 192.33 106.199 198.554 103.887 201.543C101.095 205.161 94.7842 206.036 89.9878 208.095C89.7158 208.214 89.4529 208.396 89.1718 208.441C88.2289 208.605 87.0139 209.426 86.5787 207.876C86.2614 206.746 87.431 206.391 88.1836 206.072C91.7559 204.55 95.3191 202.974 98.9821 201.716C101.312 200.924 102.237 199.775 102.165 197.197C101.965 190.599 101.956 183.983 102.165 177.386C102.246 174.789 101.222 173.668 98.9912 172.793C95.2466 171.326 91.6017 169.595 87.9297 167.936C87.1046 167.563 86.1707 166.97 86.6241 165.931C87.0865 164.865 88.1201 165.248 88.9452 165.613C93.5964 167.626 98.2205 169.704 102.89 171.681C104.667 172.438 104.667 173.832 104.649 175.381C104.613 179.436 104.64 183.491 104.64 187.537H104.35H104.359Z" fill="white"/>
<path d="M174.4 195.702V178.334C174.672 178.343 174.953 178.343 175.225 178.343V195.757C174.953 195.739 174.672 195.72 174.4 195.702Z" fill="white"/>
<path d="M179.731 201.015V173.559C179.994 173.559 180.257 173.55 180.511 173.55V201.006C180.257 201.015 179.994 201.015 179.731 201.015Z" fill="white"/>
<path d="M183.593 208.569C182.805 207.922 181.98 207.366 181.109 206.883C178.317 205.325 175.198 204.496 172.233 203.384C168.37 201.935 166.947 199.511 167.074 195.538C167.237 190.59 167.418 185.605 167.028 180.685C166.593 175.117 168.969 171.9 174.01 170.178C176.131 169.458 178.144 168.437 180.166 167.462C180.719 167.198 181.191 166.897 181.481 166.478C181.735 166.114 181.862 165.667 181.807 165.084C182.27 165.175 182.641 165.275 182.941 165.394H182.95C184.654 166.059 183.72 167.134 182.134 167.918C178.543 169.695 174.871 171.317 171.136 172.784C168.914 173.659 167.926 174.816 168.008 177.386C168.207 183.956 168.207 190.544 167.999 197.105C167.917 199.702 168.887 200.796 171.181 201.58C174.554 202.737 177.8 204.24 181.1 205.607C182.252 206.09 183.693 206.327 183.702 207.794" fill="white"/>
<path d="M114.269 177.076C110.978 176.019 114.704 175.272 114.387 174.342C116.336 175.336 114.341 176.165 114.269 177.076Z" fill="white"/>
<path d="M103.887 201.543C101.095 205.161 94.7842 206.036 89.9879 208.095C89.7158 208.214 89.4529 208.396 89.1718 208.441C88.2289 208.605 87.0139 209.426 86.5787 207.876C86.2614 206.746 87.431 206.391 88.1836 206.072C91.7559 204.55 95.3191 202.974 98.9821 201.716C101.312 200.924 102.237 199.775 102.165 197.197C101.965 190.599 101.956 183.983 102.165 177.386C102.246 174.789 101.222 173.668 98.9912 172.793C95.2466 171.326 91.6017 169.595 87.9297 167.936C87.1046 167.563 86.1707 166.97 86.6241 165.931C87.0865 164.865 88.1201 165.248 88.9452 165.613C93.5964 167.626 98.2205 169.704 102.89 171.681C104.667 172.438 104.667 173.832 104.649 175.381C104.613 179.436 104.64 183.491 104.64 187.537H104.35C104.35 192.33 106.19 198.554 103.878 201.543H103.887Z" fill="white"/>
<path d="M183.702 207.794C183.702 208.022 183.666 208.277 183.593 208.569C177.428 207.785 172.206 204.395 166.493 202.345C165.025 201.826 165.433 200.349 165.433 199.219C165.405 191.273 165.505 183.336 165.36 175.399C165.315 172.994 166.348 171.991 168.37 171.144C172.904 169.248 177.337 167.116 181.807 165.084C182.27 165.175 182.641 165.275 182.941 165.394H182.95C184.654 166.059 183.72 167.134 182.134 167.918C178.543 169.695 174.871 171.317 171.136 172.784C168.914 173.659 167.926 174.816 168.008 177.386C168.207 183.956 168.207 190.544 167.999 197.105C167.917 199.702 168.887 200.796 171.181 201.58C174.554 202.737 177.8 204.24 181.1 205.607C182.252 206.09 183.693 206.327 183.702 207.794Z" fill="white"/>
<path d="M95.7815 178.479V195.657C95.5458 195.666 95.301 195.675 95.0562 195.675V178.416C95.301 178.443 95.5458 178.461 95.7815 178.479Z" fill="white"/>
<path d="M90.1329 173.686H89.5889V200.969H90.1329V173.686Z" fill="white"/>
<path d="M180.511 173.55V201.006C180.257 201.015 179.994 201.015 179.731 201.015V173.559C179.994 173.559 180.257 173.55 180.511 173.55Z" fill="white"/>
<path d="M175.225 178.343V195.757C174.953 195.739 174.672 195.72 174.4 195.702V178.334C174.672 178.343 174.953 178.343 175.225 178.343Z" fill="white"/>
</g>
<defs>
<clipPath id="clip0_283_5">
<rect width="106" height="92" fill="white" transform="translate(82 145)"/>
</clipPath>
</defs>
</svg>
