<svg width="101" height="104" viewBox="0 0 101 104" fill="none" xmlns="http://www.w3.org/2000/svg">
<g clip-path="url(#clip0_97_121)">
<path d="M69.5557 2.55629e-05C69.8926 1.90337 71.7451 3.78689 69.6053 5.72989C67.7131 7.44488 66.2865 6.04711 64.4042 5.45232C61.8779 4.64934 58.9653 5.03596 56.2112 5.00622C54.4181 4.98639 54.7847 6.42382 54.7748 7.48454C54.7351 10.2602 54.7054 13.036 54.7748 15.8018C54.8243 17.5961 54.5073 19.0236 51.7532 19.4895C51.7532 14.2751 51.7532 9.1797 51.7532 4.0942C51.7532 2.34947 52.8726 1.98268 54.3587 2.0025C56.8056 2.04216 59.2526 1.96285 61.6897 2.02233C63.4036 2.06198 64.9491 1.91328 65.6128 -0.0098877H69.5359L69.5557 2.55629e-05Z" fill="white"/>
<path d="M0 69.6307C3.25934 67.192 2.13987 63.6133 1.90211 60.5898C1.53556 55.9702 3.20981 54.2156 7.62825 55.0582C9.97616 55.5043 14.0677 53.4523 14.2559 56.7732C14.4045 59.3705 10.3526 57.8736 8.26229 57.943C5.64689 58.0322 4.73546 58.8847 5.03266 61.3829C5.30015 63.6133 4.31937 66.0817 5.59735 68.0743C6.80598 69.9677 7.4103 71.5935 5.62707 73.2589C3.56645 75.1821 1.79313 73.5068 0.00990682 72.565V69.6208L0 69.6307Z" fill="white"/>
<path d="M47.0278 0C48.068 2.03222 48.5336 3.78686 47.2358 6.21561C45.621 9.23916 46.8593 12.8773 46.5919 16.2379C46.5225 17.14 46.9287 18.4188 45.6606 18.6468C44.6798 18.8253 43.6693 18.1016 43.5604 17.0607C43.0551 12.1933 43.9765 7.18711 41.9257 2.45849C41.688 1.91326 42.6787 0.832714 43.1047 0C44.4124 0 45.7201 0 47.0278 0Z" fill="white"/>
<path d="M0 47.0681C1.87239 45.2342 3.65562 44.114 6.20167 46.3346C7.87592 47.8017 10.2536 46.741 12.3043 46.9888C12.9086 47.0582 13.7209 46.9492 13.7903 47.7323C13.8497 48.3073 13.6417 49.1896 13.2454 49.4473C12.6411 49.8339 11.6405 50.1115 11.0164 49.8835C7.30132 48.4956 3.69524 54.1264 0.00990682 50.0124V47.0681H0Z" fill="white"/>
<path d="M53.8633 55.7225C52.6546 52.0248 51.1587 48.4164 49.8807 44.7386C49.1476 42.6171 48.3551 41.2194 45.5712 41.2194C42.7874 41.2194 41.9454 42.637 41.2023 44.7485C39.9045 48.4164 38.4582 52.0446 37.2297 55.7324C36.8731 56.7931 35.1394 58.2206 36.9028 59.0434C38.3591 59.7274 40.7962 60.2132 41.6581 58.2206C42.5497 56.1289 43.9267 56.2875 45.5911 56.3173C47.2059 56.2181 48.4343 56.3668 49.3556 58.3396C50.2274 60.2032 52.7042 59.7274 54.1704 59.0533C55.8941 58.2503 54.21 56.7733 53.8633 55.7225ZM46.3737 52.4015C46.0963 52.7088 44.8778 52.689 44.6202 52.3817C43.0648 50.4883 44.7094 48.9418 45.5712 47.2764C46.027 49.0112 48.1173 50.5081 46.3737 52.4015Z" fill="white"/>
<path d="M62.5318 56.5155C62.7498 59.1128 61.343 59.3606 59.2626 59.43C56.8255 59.5192 56.7363 58.1809 56.7561 56.3767C56.8255 52.3123 56.8453 48.2379 56.7561 44.1735C56.7066 42.2107 57.1326 41.2292 59.4211 41.2491C61.7294 41.2689 62.7002 41.9331 62.5219 44.3222C62.3733 46.4238 62.4922 48.5452 62.4922 50.6667C62.4922 52.6196 62.3535 54.5824 62.5318 56.5155Z" fill="white"/>
<path d="M73.3502 31.5836C70.1305 28.6195 65.4743 27.192 62.631 23.2961C61.67 21.9776 59.5698 21.6703 57.6974 21.5415C54.1607 21.2936 52.0901 25.1995 49.6927 25.1995C47.3349 25.1895 45.2742 21.2242 41.5691 21.3432C34.565 23.7026 29.5719 29.2242 25.421 34.6369C22.548 38.3841 20.8539 43.539 18.5159 48.0396C14.7315 55.3358 23.0136 60.5501 22.9344 67.6579C22.8947 70.7806 26.6692 73.3085 30.1366 74.2602C31.8406 74.736 32.7619 75.3308 33.6734 76.9665C37.0813 83.1226 43.2235 84.104 48.2067 79.2465C49.9404 77.5514 50.3961 78.1065 51.783 79.4745C55.6269 83.2713 60.7982 83.4696 64.3251 79.4151C66.881 76.4708 70.4871 74.5377 72.5477 71.6629C76.4906 66.1809 81.3648 59.8661 81.6719 53.6902C82.0583 46.0173 79.5419 37.2936 73.3502 31.5836ZM78.3333 52.5601C78.1054 57.9132 73.3006 64 70.1503 69.5712C69.2091 71.2267 67.5943 71.4646 66.5046 69.1449C66.0488 68.1734 65.1572 67.2515 64.2359 66.6765C62.9876 65.9033 61.4323 63.9801 60.0651 65.8537C58.7574 67.6282 60.9468 68.1833 62.0663 68.9566C64.0179 70.2949 64.9789 72.0396 64.1269 74.4089C63.2155 76.9268 61.2936 78.3345 58.7178 78.8302C56.3897 79.2763 54.5272 78.4733 53.3681 76.3618C52.9025 75.5092 52.5756 74.5675 52.2784 73.6455C51.9415 72.5551 51.783 71.3655 50.2673 71.2961C48.5732 71.2069 48.2661 72.3469 47.8005 73.6852C46.7306 76.7781 45.0068 79.425 41.1827 78.9491C38.8051 78.6517 36.8832 77.3234 36.1897 74.8451C35.5061 72.3767 36.259 70.3742 38.4584 68.9368C39.5679 68.2131 41.8564 67.7967 40.6081 65.9529C39.3401 64.0892 37.7451 65.8141 36.4076 66.5675C35.9817 66.8054 35.6448 67.192 35.2287 67.4398C33.4752 68.5006 33.6536 72.7335 29.9484 70.6121C26.5206 68.6493 24.7671 65.8042 25.0049 61.8587C26.0947 59.6976 24.678 58.5774 23.4495 57.1796C19.8831 53.1548 20.0218 49.1499 24.0638 45.6703C25.847 44.1536 26.7089 42.736 26.6593 40.3767C26.6098 38.057 27.6797 35.9553 29.3738 34.2701C31.1075 32.5551 32.6728 31.5539 34.0201 34.7658C34.5452 36.0148 35.5557 37.6604 37.3092 36.5501C39.0825 35.4399 37.4082 34.399 36.8435 33.3482C35.1792 30.275 35.7736 27.648 38.706 25.7645C41.9158 23.7026 44.8086 24.5154 46.6414 27.6579C48.8902 31.5241 50.505 32.1487 52.8034 27.6579C54.1805 24.9516 56.7562 23.7422 59.8274 25.3283C62.7301 26.8351 64.4043 29.0161 63.1065 32.4758C62.6607 33.6555 61.5611 35.0532 63.2353 35.8364C64.8501 36.5997 65.2761 34.9045 65.9795 33.8438C68.2779 30.3841 70.8933 33.0508 71.8741 34.4783C75.6089 39.9107 78.5711 47.0086 78.3333 52.5601Z" fill="white"/>
<path d="M47.8003 83.9158C47.8003 86.5428 47.8795 88.4957 47.7805 90.4387C47.6021 93.9976 49.1773 98.2801 47.0771 100.917C44.9867 103.544 40.6773 101.651 37.3486 101.898C35.9517 102.007 34.9214 102.473 33.8515 103.306C32.306 104.506 30.7606 104.089 29.5123 102.721C28.3829 101.482 28.2938 100.025 29.334 98.7163C30.4336 97.3383 31.8107 96.6246 33.584 97.6952C34.3964 98.181 35.2483 98.7559 36.1499 98.9244C43.58 100.352 44.6202 99.3507 44.8381 91.8265C44.9075 89.2689 43.2431 85.8885 47.7904 83.9158H47.8003Z" fill="white"/>
<path d="M91.7372 48.7634C89.8549 48.1289 85.8525 50.1512 85.8129 47.0979C85.7832 44.4214 89.7261 46.057 91.8561 45.8687C95.8683 45.5118 97.5228 40.922 95.2046 35.6085C94.7489 34.5775 93.8572 33.7051 94.1842 32.4858C94.7191 30.5031 96.0962 29.2342 98.1172 29.7596C100.198 30.295 101.882 32.1785 100.495 34.1413C98.672 36.7088 98.9295 39.3061 98.8998 42.0223C98.8305 49.2888 99.8509 48.7435 91.7372 48.7634Z" fill="white"/>
<path d="M85.8129 61.3928C88.785 60.8376 90.0431 62.285 89.7558 65.4671C89.5676 67.5786 89.7954 69.5514 91.0635 71.4745C91.8858 72.7335 91.4796 74.3593 90.0827 75.3605C88.7453 76.3122 87.3287 76.3221 86.0408 75.2812C84.7331 74.2205 84.5349 72.7633 85.1789 71.3159C85.694 70.1561 86.4866 69.2044 86.5956 67.7868C86.7838 65.2887 86.0408 64.1883 83.3758 64.446C82.3257 64.5452 80.3047 65.2292 80.4533 63.1771C80.5524 61.9182 82.2068 61.4225 83.6037 61.3928C84.2575 61.3828 84.9015 61.3928 85.8327 61.3928H85.8129Z" fill="white"/>
<path d="M19.9524 39.6828C18.1197 43.3011 15.2368 42.5081 12.8889 42.2008C10.3131 41.8637 11.3335 39.4151 11.2047 37.7894C11.066 36.0149 11.1354 34.3594 9.98619 32.7039C9.03513 31.3358 9.31253 29.5812 10.8976 28.3817C12.3044 27.321 13.6715 27.4796 14.9099 28.5304C16.3563 29.7695 16.2572 31.2664 15.5736 32.9616C13.305 38.6023 13.5427 38.9591 19.9524 39.6927V39.6828Z" fill="white"/>
<path d="M32.8511 14.2949C31.4047 13.9678 30.3248 15.1078 29.027 15.7323C27.5509 16.4362 26.1342 16.1288 25.094 14.8203C24.0637 13.5217 24.034 12.0842 25.0247 10.7658C26.0352 9.42748 27.7193 8.9913 28.9478 9.83393C31.0282 11.2614 33.2275 11.3011 35.4764 11.1227C39.7264 10.7856 39.1221 13.6604 39.1221 16.2775C39.1221 17.5464 38.2701 18.0421 37.3488 18.2503C35.724 18.6072 36.0312 17.2193 36.051 16.3965C36.0906 14.0966 34.4956 14.3445 32.8511 14.2949Z" fill="white"/>
<path d="M60.3623 89.2491C60.3623 87.663 60.1047 86.1264 61.7591 85.6902C64.1863 85.0459 63.0173 87.1871 63.5027 88.0893C65.0086 90.8551 67.297 89.8935 69.1595 88.8228C71.1409 87.6927 72.8151 87.3755 74.321 89.2194C75.3513 90.4783 75.3315 92.0149 74.2318 93.2541C72.8151 94.86 71.0914 94.8303 69.4567 93.6109C67.832 92.4114 66.0092 92.7584 64.2755 92.8476C61.4025 92.9864 59.8471 92.0744 60.3623 89.2392V89.2491Z" fill="white"/>
<path d="M53.1797 84.689C54.3685 85.1152 55.5772 85.1846 55.7357 86.3247C56.3697 91.1822 55.1809 96.1883 57.5486 100.986C58.252 102.404 56.023 104.159 53.9326 103.841C51.9215 103.524 50.2077 101.71 51.238 100.064C54.3091 95.1871 52.0305 89.8934 53.1896 84.6989L53.1797 84.689Z" fill="white"/>
<path d="M83.9008 41.4077C83.772 41.3681 82.8111 41.378 82.3257 40.8922C81.7709 40.3272 81.86 39.1772 82.5733 38.7212C85.3076 36.9765 84.3169 35.0533 82.9795 33.0905C81.761 31.2962 82.0384 29.7101 83.6631 28.3916C84.9906 27.3111 86.4667 27.4499 87.6654 28.5205C88.983 29.7002 89.627 31.2565 88.2796 32.803C86.6747 34.6469 87.2097 36.7981 87.1998 38.8501C87.18 40.7237 86.4073 41.5564 83.9008 41.4077Z" fill="white"/>
<path d="M15.6826 76.1239C13.1464 75.6778 11.0561 74.2701 12.2647 71.9703C13.5724 69.4919 13.7607 67.1425 13.7508 64.5849C13.7508 62.5824 15.0287 62.0768 16.6336 62.3247C18.2881 62.5824 18.1197 63.9306 17.5451 64.9318C16.2572 67.202 16.7525 68.9864 18.0998 71.1376C19.7147 73.715 18.0206 75.2714 15.6727 76.1338L15.6826 76.1239Z" fill="white"/>
<path d="M68.793 11.9257C70.6159 11.8959 71.6957 12.6196 72.2802 13.8489C72.8548 15.0682 72.8053 16.3569 71.7948 17.4573C70.6852 18.6667 69.219 19.2318 67.9212 18.2404C65.7715 16.6047 63.8 16.0992 61.3431 17.5862C60.402 18.1512 59.0745 17.9728 58.8961 16.3569C58.7574 15.1178 59.0645 13.9381 60.501 13.8588C63.5127 13.7002 66.6234 14.1264 68.793 11.9356V11.9257Z" fill="white"/>
<path d="M40.3307 88.5155C40.3307 88.5155 40.3208 88.8724 40.1722 89.15C39.6274 90.1909 28.6506 91.9257 27.8383 91.0732C26.7683 89.953 26.164 88.7138 27.125 87.1772C28.0958 85.6209 29.5719 84.6494 31.1669 85.6209C33.495 87.0385 35.4467 88.0893 38.1512 86.2256C39.2311 85.4821 40.6577 86.3842 40.3307 88.5254V88.5155Z" fill="white"/>
<path d="M100.901 55.5737C100.237 57.7249 98.6322 59.7373 96.74 58.5279C93.976 56.7732 91.2418 57.0012 88.3787 56.8624C87.5762 56.8228 86.2586 57.4572 86.1496 55.9008C86.0506 54.4832 86.8728 53.938 88.2697 53.9182C91.1328 53.8785 93.8572 54.0371 96.6608 52.3618C98.8106 51.0731 100.465 53.145 100.901 55.5737Z" fill="white"/>
<path d="M53.8633 55.7225C52.6546 52.0248 51.1587 48.4164 49.8807 44.7386C49.1476 42.6171 48.3551 41.2194 45.5712 41.2194C42.7874 41.2194 41.9454 42.637 41.2023 44.7485C39.9045 48.4164 38.4582 52.0446 37.2297 55.7324C36.8731 56.7931 35.1394 58.2206 36.9028 59.0434C38.3591 59.7274 40.7962 60.2132 41.6581 58.2206C42.5497 56.1289 43.9267 56.2875 45.5911 56.3173C47.2059 56.2181 48.4343 56.3668 49.3556 58.3396C50.2274 60.2032 52.7042 59.7274 54.1704 59.0533C55.8941 58.2503 54.21 56.7733 53.8633 55.7225ZM46.3737 52.4015C46.0963 52.7088 44.8778 52.689 44.6202 52.3817C43.0648 50.4883 44.7094 48.9418 45.5712 47.2764C46.027 49.0112 48.1173 50.5081 46.3737 52.4015Z" fill="#FEFEFE"/>
<path d="M59.2626 59.43C56.8255 59.5192 56.7363 58.1809 56.7561 56.3767C56.8255 52.3123 56.8453 48.2379 56.7561 44.1735C56.7066 42.2107 57.1326 41.2292 59.4211 41.2491C61.7294 41.2689 62.7002 41.9331 62.5219 44.3222C62.3733 46.4238 62.4922 48.5452 62.4922 50.6667C62.4922 52.6196 62.3535 54.5824 62.5318 56.5155C62.7498 59.1128 61.343 59.3606 59.2626 59.43Z" fill="#FEFEFE"/>
<path d="M53.8633 55.7225C52.6546 52.0248 51.1587 48.4164 49.8807 44.7386C49.1476 42.6171 48.3551 41.2194 45.5712 41.2194C42.7874 41.2194 41.9454 42.637 41.2023 44.7485C39.9045 48.4164 38.4582 52.0446 37.2297 55.7324C36.8731 56.7931 35.1394 58.2206 36.9028 59.0434C38.3591 59.7274 40.7962 60.2132 41.6581 58.2206C42.5497 56.1289 43.9267 56.2875 45.5911 56.3173C47.2059 56.2181 48.4343 56.3668 49.3556 58.3396C50.2274 60.2032 52.7042 59.7274 54.1704 59.0533C55.8941 58.2503 54.21 56.7733 53.8633 55.7225ZM46.3737 52.4015C46.0963 52.7088 44.8778 52.689 44.6202 52.3817C43.0648 50.4883 44.7094 48.9418 45.5712 47.2764C46.027 49.0112 48.1173 50.5081 46.3737 52.4015Z" fill="white"/>
<path d="M59.2626 59.43C56.8255 59.5192 56.7363 58.1809 56.7561 56.3767C56.8255 52.3123 56.8453 48.2379 56.7561 44.1735C56.7066 42.2107 57.1326 41.2292 59.4211 41.2491C61.7294 41.2689 62.7002 41.9331 62.5219 44.3222C62.3733 46.4238 62.4922 48.5452 62.4922 50.6667C62.4922 52.6196 62.3535 54.5824 62.5318 56.5155C62.7498 59.1128 61.343 59.3606 59.2626 59.43Z" fill="white"/>
</g>
<defs>
<clipPath id="clip0_97_121">
<rect width="101" height="104" fill="white"/>
</clipPath>
</defs>
</svg>
