<svg width="270" height="365" viewBox="0 0 270 365" fill="none" xmlns="http://www.w3.org/2000/svg">
<rect x="96.2341" y="0.533691" width="181.816" height="324.346" rx="81" transform="rotate(17.2596 96.2341 0.533691)" fill="#8EA604"/>
<g clip-path="url(#clip0_283_3)">
<path d="M139.446 185.65C138.133 187.298 139.063 189.644 137.24 191.936C136.283 189.463 136.848 187.407 135.454 185.831C134.825 185.124 135.49 184.119 136.174 183.521C136.894 182.887 137.751 182.832 138.607 183.394C139.464 183.965 139.956 185.015 139.446 185.65Z" fill="white"/>
<path d="M146.235 178.955C144.44 178.059 144.367 177.008 144.404 175.504C144.449 173.221 144.549 170.522 141.806 169.978C138.516 169.335 133.312 168.04 132.182 170.83C130.341 175.377 126.039 179.091 125.602 183.385C124.554 193.63 123.661 197.181 136.374 196.42C136.675 196.402 136.976 196.42 137.277 196.42C139.528 196.42 141.77 196.375 144.021 196.429C145.607 196.465 146.974 196.003 148.095 194.907C151.12 191.963 150.009 180.849 146.235 178.955ZM137.286 171.672C140.029 171.736 142.49 171.283 142.444 175.613C142.399 179.979 139.537 178.131 137.55 178.602C135.654 177.959 132.319 180.26 132.383 175.513C132.437 171.654 134.515 171.618 137.286 171.672ZM141.852 194.3C140.366 194.155 138.862 194.273 137.359 194.273C136.311 194.273 135.262 194.282 134.214 194.273C129.718 194.267 127.47 192.063 127.47 187.661C127.464 182.92 129.87 180.55 134.688 180.55C136.183 180.55 137.687 180.559 139.181 180.55C147.593 180.55 147.347 180.559 147.648 188.802C147.821 193.34 145.98 194.699 141.852 194.3Z" fill="white"/>
<path d="M188.742 180.332C187.102 178.792 184.796 178.53 183.52 180.187C181.88 182.334 179.948 182.008 177.897 182.026C175.044 182.053 172.146 181.736 169.339 182.099C165.156 182.642 163.661 180.93 164.108 176.89C169.84 175.903 176.512 178.82 181.223 173.122C181.397 172.904 182.089 173.086 182.536 173.113C185.297 173.249 186.947 171.79 186.992 169.209C187.038 167.053 185.525 165.485 183.274 165.467C180.595 165.449 179.246 166.998 179.182 169.734C179.1 173.167 177.095 174.725 173.759 174.761C171.809 174.789 169.767 174.408 167.908 174.834C163.087 175.966 162.385 172.225 160.781 169.381C158.995 166.201 162.476 165.784 163.543 164.172C164.5 162.705 166.04 161.608 167.316 160.34C169.822 157.858 172.374 157.532 175.072 160.078C176.894 161.799 178.89 161.871 180.658 160.114C182.262 158.52 182.363 156.626 180.768 154.914C179.018 153.048 176.858 153.012 175.217 154.769C174.033 156.047 172.875 156.527 171.317 156.327C169.157 156.038 167.626 156.952 166.213 158.492C164.39 160.476 162.367 162.279 160.508 164.226C159.387 165.395 158.63 166.255 156.999 164.571C155.377 162.904 156.37 162.234 157.418 161.056C160.854 157.215 166.432 154.661 165.548 148.084C165.502 147.722 166.295 147.233 166.705 146.816C168.656 144.859 168.765 142.83 166.696 140.991C165.001 139.488 163.087 139.542 161.456 141.182C159.66 142.993 159.615 145.095 161.611 146.626C163.433 148.03 163.078 149.742 163.041 151.472C163.023 152.559 155.185 161.083 154.146 161.237C153.754 161.3 153.299 161.11 152.889 160.983C147.32 159.235 145.835 157.17 145.835 151.218C145.835 150.322 145.871 149.425 145.825 148.528C145.607 144.388 146.828 141.607 151.704 141.635C154.037 141.644 155.267 139.841 155.249 137.749C155.222 135.602 153.691 134.016 151.522 133.944C149.444 133.89 147.794 134.995 147.521 137.368C147.393 138.519 148.104 139.959 146.901 140.729C143.128 143.138 143.921 146.87 143.893 150.367C143.875 152.505 143.884 154.643 143.884 156.853C140.324 156.273 138.544 154.479 138.544 151.472C138.544 148.936 138.516 146.39 138.553 143.854C138.58 141.408 138.179 139.044 140.585 137.024C142.198 135.665 141.651 133.364 139.865 131.942C138.261 130.656 136.456 130.683 134.934 132.069C133.267 133.582 133.084 135.43 134.397 137.305C135.126 138.346 136.529 138.808 136.484 140.511C136.356 144.995 136.32 149.488 136.484 153.963C136.593 156.971 134.242 156.309 132.756 156.608C130.25 157.115 131.253 154.978 131.17 153.936C130.797 149.09 132.638 143.718 127.598 140.013C127.306 139.805 127.516 138.908 127.525 138.328C127.58 135.575 126.003 133.989 123.469 133.962C121.364 133.935 119.696 135.457 119.678 137.667C119.66 140.312 121.3 141.671 124.034 141.698C127.607 141.734 128.974 143.881 129.029 147.142C129.065 149.081 128.701 151.101 129.102 152.958C130.086 157.46 126.696 158.248 123.889 159.878C120.635 161.781 120.197 158.384 118.575 157.369C117.208 156.518 116.224 155.086 115.021 153.945C112.278 151.336 111.266 148.764 114.456 145.62C116.187 143.908 115.95 141.743 114.128 140.068C112.597 138.645 110.737 138.654 109.206 139.977C107.329 141.58 107.21 143.6 108.741 145.548C109.443 146.436 110.901 146.861 110.537 148.347C109.562 152.305 112.369 154.316 114.729 156.59C116.133 157.94 117.427 159.416 118.903 160.675C120.498 162.034 119.496 162.822 118.557 163.9C117.372 165.25 116.634 164.58 115.713 163.638C113.617 161.5 111.421 159.453 109.343 157.297C108.249 156.155 107.128 155.34 105.442 155.512C103.446 155.711 101.815 155.385 100.302 153.637C98.8439 151.961 96.6657 152.26 95.1346 153.936C93.649 155.567 93.5943 157.514 95.1254 159.163C96.6566 160.811 98.7072 161.156 100.329 159.525C103.319 156.536 106.007 156.853 108.741 159.679C111.029 162.025 113.271 164.417 115.495 166.817C115.595 166.926 115.34 167.342 115.267 167.623C113.891 172.642 111.111 174.77 105.925 174.77C104.567 174.77 103.209 174.798 101.861 174.761C98.2059 174.662 95.5902 173.674 95.7178 169.163C95.7816 166.862 94.0591 165.286 91.5437 165.467C89.5843 165.612 88.1443 166.727 87.9893 168.864C87.8071 171.383 89.1103 172.986 91.5802 173.049C93.3665 173.086 94.8429 173.276 95.9001 174.779C97.1852 176.618 99.0261 176.809 101.068 176.718C103.474 176.609 105.889 176.618 108.286 176.727C109.352 176.781 111.375 175.894 110.692 178.475C110.291 179.979 111.312 182.325 108.176 182.072C105.779 181.881 103.355 182.162 100.958 181.999C97.4221 181.754 93.6217 183.204 90.5777 179.662C89.5296 178.439 87.0506 179.001 85.8294 180.74C84.6719 182.379 84.6901 184.173 86.1484 185.641C87.7706 187.271 90.0582 187.434 91.3523 185.813C92.9837 183.747 94.8794 183.992 96.9209 183.983C99.7735 183.974 102.653 184.209 105.488 183.919C109.607 183.512 111.676 184.662 110.418 189.309C107.475 189.309 104.422 189.681 101.496 189.219C97.8413 188.63 96.21 191.393 93.7675 192.869C93.3391 193.123 92.5918 192.851 91.9994 192.869C89.5113 192.96 88.0349 194.21 87.9711 196.728C87.9255 199.065 89.3838 200.424 91.5711 200.533C94.2687 200.659 95.7543 199.038 95.7269 196.375C95.6723 192.742 97.8687 191.501 100.976 191.266C103.073 191.112 105.269 191.61 107.283 191.166C112.278 190.07 112.806 194.092 114.283 196.909C115.695 199.618 112.624 200.216 111.539 201.701C110.582 203.015 109.234 204.047 108.085 205.225C105.442 207.942 102.772 208.758 99.6641 205.777C97.8596 204.047 95.7999 204.201 94.1138 206.058C92.7467 207.589 92.7285 209.401 94.0409 210.95C95.654 212.834 97.6682 213.024 99.5821 211.394C100.603 210.524 101.35 209.319 102.954 209.673C106.108 210.361 107.958 208.441 109.844 206.421C111.476 204.672 113.244 203.042 114.975 201.384C115.559 200.832 116.078 199.726 117.099 200.777C117.819 201.52 118.958 202.39 118.931 203.16C118.894 203.948 117.582 204.636 116.971 205.469C114.647 208.622 110.081 210.08 109.726 214.673C109.571 216.62 109.635 218.278 107.794 219.791C106.126 221.159 106.408 223.351 108.094 224.918C109.762 226.467 111.667 226.503 113.344 224.963C114.984 223.441 115.44 221.358 113.763 219.8C110.601 216.856 110.938 214.238 113.818 211.484C116.187 209.211 118.575 206.946 120.99 204.718C121.109 204.609 121.537 204.835 121.82 204.899C126.568 206.022 129.038 209.211 129.038 214.202C129.038 215.696 129.047 217.191 129.038 218.686C129.011 222.164 127.662 224.338 123.761 224.329C121.291 224.32 119.714 225.751 119.66 228.17C119.623 230.398 121.209 231.902 123.324 232.038C125.693 232.192 127.571 230.697 127.434 228.297C127.306 226.168 128.145 224.909 129.557 223.758C130.842 222.717 131.225 221.449 131.152 219.836C131.043 217.3 131.016 214.745 131.189 212.218C131.262 211.185 130.186 209.066 132.61 209.383C134.251 209.6 136.812 209.102 136.484 212.345C136.256 214.564 136.529 216.829 136.42 219.066C136.238 222.626 137.413 226.367 134.078 229.438C132.738 230.679 133.504 232.88 135.162 234.13C136.839 235.39 138.616 235.272 140.084 233.886C141.715 232.346 142.143 230.054 140.421 228.732C138.161 226.983 138.58 224.909 138.553 222.753C138.516 220.063 138.817 217.336 138.48 214.691C137.96 210.669 139.418 208.875 143.611 209.319C144.85 214.936 141.606 221.648 147.466 226.295C147.758 226.521 147.502 227.436 147.493 228.025C147.475 230.598 148.97 232.038 151.33 232.056C153.481 232.074 155.14 230.634 155.213 228.433C155.304 225.797 153.709 224.356 150.975 224.302C147.193 224.239 145.771 222.065 145.825 218.568C145.853 216.774 146.19 214.899 145.762 213.205C144.577 208.423 148.332 207.716 151.184 206.067C154.402 204.192 154.739 207.761 156.434 208.703C157.446 209.265 158.129 210.379 159.031 211.167C162.358 214.075 163.935 217.028 160.161 220.869C158.521 222.527 159.141 224.574 160.818 225.996C162.358 227.3 164.172 227.346 165.757 225.969C167.471 224.483 167.753 222.699 166.423 220.796C165.694 219.746 164.108 219.211 164.463 217.535C165.192 214.048 163.041 212.019 160.736 209.999C159.387 208.812 158.084 207.553 156.926 206.176C156.069 205.161 153.791 204.564 155.996 202.408C157.919 200.533 158.721 201.828 159.87 202.987C161.775 204.899 163.716 206.774 165.612 208.694C166.687 209.79 167.79 210.696 169.503 210.506C171.508 210.28 173.158 210.633 174.671 212.381C176.165 214.102 178.289 213.676 179.829 212.037C181.397 210.361 181.351 208.459 179.774 206.819C178.207 205.189 176.229 204.89 174.57 206.511C171.107 209.89 168.282 208.731 165.466 205.696C163.935 204.047 162.258 202.535 160.69 200.931C160.089 200.315 159.25 199.844 159.405 198.739C159.906 195.061 164.29 191.239 168.072 191.239C169.275 191.239 170.478 191.293 171.681 191.23C176.074 191.012 179.382 191.837 179.328 197.362C179.31 199.545 181.251 200.705 183.484 200.524C185.534 200.351 186.847 198.984 186.992 197.018C187.157 194.808 185.844 193.386 183.648 192.924C182.39 192.661 180.822 193.549 179.893 192.117C177.815 188.92 174.625 189.237 171.472 189.3C168.974 189.355 166.468 189.309 164.062 189.309C163.597 184.68 165.657 183.394 169.567 183.928C171.49 184.191 173.477 183.919 175.427 183.992C178.444 184.101 181.515 183.267 184.094 186.193C185.325 187.588 187.813 187.108 189.189 185.179C190.41 183.457 190.246 181.736 188.742 180.332ZM183.456 167.542C184.477 167.705 184.933 168.439 184.869 169.471C184.687 170.459 184.158 171.183 183.11 171.129C181.916 171.075 181.123 170.296 181.214 169.109C181.305 167.877 182.272 167.352 183.456 167.542ZM176.111 157.306C176.211 156.065 177.049 155.503 178.271 155.739C179.246 155.92 179.802 156.563 179.793 157.632C179.41 158.646 178.836 159.453 177.541 159.217C176.493 159.027 176.038 158.248 176.111 157.306ZM162.403 144.135C162.221 142.957 163.114 142.124 164.226 142.124C165.065 142.124 165.903 142.722 165.912 143.836C165.867 144.85 165.347 145.494 164.326 145.593C163.278 145.693 162.54 144.995 162.403 144.135ZM151.558 136.154C152.57 136.209 153.144 136.843 153.098 138.102C152.989 139.144 152.242 139.805 151.066 139.642C150.173 139.515 149.462 138.872 149.471 137.83C149.48 136.453 150.446 136.1 151.558 136.154ZM123.415 139.714C122.458 139.624 121.738 138.935 121.692 137.93C121.637 136.616 122.594 136.209 123.515 136.036C124.745 136.209 125.438 136.752 125.392 137.803C125.347 138.98 124.691 139.832 123.415 139.714ZM111.302 144.733C110.373 144.588 109.635 143.999 109.708 142.993C109.799 141.852 110.582 141.073 111.713 141.118C112.888 141.155 113.462 141.988 113.38 143.437C113.289 144.479 112.451 144.905 111.302 144.733ZM97.8596 158.438C96.7295 158.157 95.9457 157.623 96.0915 156.346C96.2373 155.077 97.1305 154.597 98.2332 154.742C99.1446 154.869 99.8282 155.53 99.8008 156.554C99.7735 157.786 98.9441 158.284 97.8596 158.438ZM91.7625 171.138C90.7599 171.147 90.0582 170.45 89.9761 169.489C89.8668 168.257 90.605 167.551 91.8536 167.524C92.8926 167.496 93.5214 168.04 93.6217 169.118C93.5943 170.323 93.011 171.129 91.7625 171.138ZM88.8916 184.753C87.9073 184.735 87.2238 184.155 87.16 183.177C87.078 181.999 87.7159 181.302 88.8825 181.22C89.9579 181.292 90.605 181.8 90.6688 182.814C90.7326 184.001 90.1493 184.762 88.8916 184.753ZM91.9994 198.513C90.8055 198.458 89.9488 197.933 89.9579 196.665C89.9579 195.668 90.6597 194.953 91.6166 194.88C92.8288 194.79 93.5761 195.487 93.6034 196.746C93.6308 197.806 93.0566 198.386 91.9994 198.513ZM96.93 210.361C96.0186 210.325 95.2621 209.863 95.171 208.785C95.0708 207.526 95.7999 206.81 96.9209 206.729C98.0601 206.647 98.8439 207.29 98.9077 208.649C98.8712 209.808 98.1056 210.406 96.93 210.361ZM112.505 222.273C112.332 223.351 111.676 224.13 110.464 223.931C109.607 223.786 108.814 223.179 108.851 222.128C108.896 220.814 109.835 220.343 110.965 220.407C111.94 220.461 112.551 221.095 112.505 222.273ZM124.044 229.918C122.704 229.982 121.92 229.511 121.719 228.532C121.473 227.291 122.275 226.476 123.396 226.304C124.672 226.105 125.319 227.01 125.383 228.179C125.438 229.221 124.709 229.737 124.044 229.918ZM151.175 226.349C152.442 226.204 152.907 227.128 153.089 227.735C153.098 229.302 152.46 229.837 151.458 229.855C150.291 229.882 149.444 229.348 149.48 228.052C149.517 227.02 150.273 226.44 151.175 226.349ZM163.552 221.24C164.627 221.367 165.01 222.11 165.147 223.07C164.882 224.175 164.308 225.009 163.051 224.873C162.012 224.764 161.456 223.885 161.501 222.998C161.556 221.892 162.239 221.086 163.552 221.24ZM176.94 207.625C177.806 207.553 178.699 208.178 178.836 209.165C179 210.406 178.152 211.004 177.086 211.348C176.138 211.176 175.372 210.769 175.217 209.745C175.017 208.45 175.855 207.716 176.94 207.625ZM135.645 134.696C135.755 133.69 136.475 133.102 137.368 133.074C138.507 133.056 139.336 133.799 139.346 134.959C139.346 136.154 138.507 136.725 137.331 136.788C136.183 136.553 135.509 135.937 135.645 134.696ZM139.327 231.268C139.118 232.373 138.297 233.061 137.158 232.898C136.283 232.763 135.563 232.047 135.645 230.978C135.746 229.683 136.584 229.148 137.778 229.311C138.744 229.447 139.373 230.081 139.327 231.268ZM137.35 207.761C123.661 207.707 112.332 196.402 112.414 182.887C112.496 169.353 123.98 158.103 137.587 158.248C151.33 158.384 162.65 169.689 162.485 183.122C162.321 196.773 151.057 207.816 137.35 207.761ZM181.251 196.357C181.424 195.469 182.171 194.771 183.201 194.862C184.477 194.989 185.006 195.904 184.851 197.063C184.714 198.051 184.012 198.594 182.818 198.485C181.706 198.295 181.014 197.543 181.251 196.357ZM185.908 184.798C184.769 184.798 184.304 184.092 184.267 183.14C184.213 181.945 184.778 181.184 186.108 181.211C187.22 181.238 187.612 181.963 187.867 182.914C187.703 184.01 187.211 184.789 185.908 184.798Z" fill="white"/>
<path d="M139.446 185.65C138.133 187.298 139.063 189.644 137.24 191.936C136.283 189.463 136.848 187.407 135.454 185.831C134.825 185.124 135.49 184.119 136.174 183.521C136.894 182.887 137.751 182.832 138.607 183.394C139.464 183.965 139.956 185.015 139.446 185.65Z" fill="#FEFEFE"/>
<path d="M146.235 178.955C144.44 178.059 144.367 177.008 144.404 175.504C144.449 173.221 144.549 170.522 141.806 169.978C138.516 169.335 133.312 168.04 132.182 170.83C130.341 175.377 126.039 179.091 125.602 183.385C124.554 193.63 123.661 197.181 136.374 196.42C136.675 196.402 136.976 196.42 137.277 196.42C139.528 196.42 141.77 196.375 144.021 196.429C145.607 196.465 146.974 196.003 148.095 194.907C151.12 191.963 150.009 180.849 146.235 178.955ZM137.286 171.672C140.029 171.736 142.49 171.283 142.444 175.613C142.399 179.979 139.537 178.131 137.55 178.602C135.654 177.959 132.319 180.26 132.383 175.513C132.437 171.654 134.515 171.618 137.286 171.672ZM141.852 194.3C140.366 194.155 138.862 194.273 137.359 194.273C136.311 194.273 135.262 194.282 134.214 194.273C129.718 194.267 127.47 192.063 127.47 187.661C127.464 182.92 129.87 180.55 134.688 180.55C136.183 180.55 137.687 180.559 139.181 180.55C147.593 180.55 147.347 180.559 147.648 188.802C147.821 193.34 145.98 194.699 141.852 194.3Z" fill="#FEFEFE"/>
<path d="M139.446 185.65C138.133 187.298 139.063 189.644 137.24 191.936C136.283 189.463 136.848 187.407 135.454 185.831C134.825 185.124 135.49 184.119 136.174 183.521C136.894 182.887 137.751 182.832 138.607 183.394C139.464 183.965 139.956 185.015 139.446 185.65Z" fill="white"/>
<path d="M146.235 178.955C144.44 178.059 144.367 177.008 144.404 175.504C144.449 173.221 144.549 170.522 141.806 169.978C138.516 169.335 133.312 168.04 132.182 170.83C130.341 175.377 126.039 179.091 125.602 183.385C124.554 193.63 123.661 197.181 136.374 196.42C136.675 196.402 136.976 196.42 137.277 196.42C139.528 196.42 141.77 196.375 144.021 196.429C145.607 196.465 146.974 196.003 148.095 194.907C151.12 191.963 150.009 180.849 146.235 178.955ZM137.286 171.672C140.029 171.736 142.49 171.283 142.444 175.613C142.399 179.979 139.537 178.131 137.55 178.602C135.654 177.959 132.319 180.26 132.383 175.513C132.437 171.654 134.515 171.618 137.286 171.672ZM141.852 194.3C140.366 194.155 138.862 194.273 137.359 194.273C136.311 194.273 135.262 194.282 134.214 194.273C129.718 194.267 127.47 192.063 127.47 187.661C127.464 182.92 129.87 180.55 134.688 180.55C136.183 180.55 137.687 180.559 139.181 180.55C147.593 180.55 147.347 180.559 147.648 188.802C147.821 193.34 145.98 194.699 141.852 194.3Z" fill="white"/>
<path d="M139.446 185.65C138.133 187.298 139.063 189.644 137.24 191.936C136.283 189.463 136.848 187.407 135.454 185.831C134.825 185.124 135.49 184.119 136.174 183.521C136.894 182.887 137.751 182.832 138.607 183.394C139.464 183.965 139.956 185.015 139.446 185.65Z" fill="#FBFBFB"/>
<path d="M139.446 185.65C138.133 187.298 139.063 189.644 137.24 191.936C136.283 189.463 136.848 187.407 135.454 185.831C134.825 185.124 135.49 184.119 136.174 183.521C136.894 182.887 137.751 182.832 138.607 183.394C139.464 183.965 139.956 185.015 139.446 185.65Z" fill="white"/>
</g>
<defs>
<clipPath id="clip0_283_3">
<rect width="105" height="104" fill="white" transform="translate(85 131)"/>
</clipPath>
</defs>
</svg>
