<svg width="21" height="16" viewBox="0 0 21 16" fill="none" xmlns="http://www.w3.org/2000/svg">
<path d="M2.64467 0.799805H18.5447C20.0447 0.799805 20.8007 1.5078 20.8007 2.9478V13.0518C20.8007 14.4798 20.0447 15.1998 18.5447 15.1998H2.64467C1.14467 15.1998 0.388672 14.4798 0.388672 13.0518V2.9478C0.388672 1.5078 1.14467 0.799805 2.64467 0.799805ZM10.5887 11.1198L18.6767 4.4838C18.9647 4.2438 19.1927 3.6918 18.8327 3.1998C18.4847 2.7078 17.8487 2.6958 17.4287 2.9958L10.5887 7.6278L3.76067 2.9958C3.34067 2.6958 2.70467 2.7078 2.35667 3.1998C1.99667 3.6918 2.22467 4.2438 2.51267 4.4838L10.5887 11.1198Z" fill="#0E0F1D"/>
</svg>
