<svg width="400" height="400" viewBox="0 0 400 400" fill="none" xmlns="http://www.w3.org/2000/svg">
<rect width="400" height="400" rx="32" fill="white"/>
<g clip-path="url(#clip0_137_41)">
<path d="M242.593 352.126C242.08 352.126 241.567 352.09 241.055 352.035C237.226 351.632 233.782 349.748 231.346 346.747C228.927 343.746 227.81 339.995 228.231 336.153L240.908 217.498C239.223 222.218 237.153 226.737 234.698 230.982C220.189 256.141 192.308 273.779 161.954 277.054C158.803 277.402 155.652 277.566 152.556 277.566C131.16 277.566 112.75 269.406 102.088 255.171C99.7801 252.079 98.8092 248.291 99.3587 244.485C99.9083 240.68 101.905 237.295 105.001 234.989C107.511 233.105 110.515 232.117 113.647 232.117C118.172 232.117 122.495 234.276 125.207 237.899C132.516 247.651 147.006 248.712 152.886 248.712C154.883 248.712 156.898 248.602 158.858 248.401C180.218 246.114 199.691 233.928 209.674 216.619C210.371 215.412 211.03 214.131 211.671 212.777H211.635C195.954 212.777 180.09 212.612 164.464 212.32C158.73 212.21 153.601 208.715 151.402 203.427C149.204 198.139 150.358 192.047 154.333 187.911C166.497 175.268 179.412 161.619 193.774 146.268C186.648 142.133 178.551 139.9 170.655 139.9C166.497 139.9 162.504 140.523 158.748 141.748C146.823 145.627 136.418 155.197 127.826 164.034C125.115 166.815 121.36 168.425 117.494 168.425C117.201 168.425 116.908 168.425 116.615 168.407C112.438 168.169 108.555 166.12 106.008 162.79C99.3221 154.081 91.9213 145.792 83.9893 138.199C80.7652 135.107 79.1348 130.606 79.6477 126.178C80.1606 121.75 82.7436 117.725 86.5722 115.437C99.835 107.515 112.512 98.3848 124.254 88.3215C126.874 86.0709 130.208 84.8451 133.651 84.8451C137.865 84.8451 141.858 86.6747 144.606 89.8767C149.79 95.9147 149.094 105.027 143.049 110.205C134.659 117.395 125.793 124.183 116.615 130.459C117.329 131.246 118.044 132.051 118.74 132.856C129.163 123.817 139.349 117.761 149.809 114.358C156.513 112.181 163.566 111.083 170.802 111.083C185.97 111.083 201.12 115.95 213.778 124.824C228.671 108.686 243.051 92.8774 256.552 77.8008C258.824 72.5678 264.045 69.0914 269.76 69.0914C270.273 69.0914 270.786 69.128 271.317 69.1829C275.146 69.5854 278.59 71.47 281.026 74.4707C283.462 77.4714 284.562 81.2223 284.14 85.0646L273.644 183.191C285.936 182.88 296.341 182.55 306.123 182.166C306.324 182.166 306.526 182.166 306.727 182.166C314.495 182.166 320.814 188.241 321.126 196.017C321.272 199.859 319.917 203.537 317.316 206.373C314.696 209.209 311.142 210.856 307.277 211.002C295.938 211.46 283.902 211.825 270.548 212.155L256.955 339.373C256.167 346.729 250.012 352.272 242.612 352.272L242.593 352.126ZM198.042 183.886C202.475 183.904 206.89 183.923 211.323 183.923C213.137 183.923 214.969 183.923 216.782 183.923C216.324 178.324 215.023 172.926 212.99 168.023C207.897 173.457 202.896 178.781 198.042 183.904V183.886ZM233.8 145.609C239.809 155.069 243.674 165.9 245.195 177.464L250.544 127.404C245.286 133.149 239.754 139.187 233.8 145.609Z" fill="url(#paint0_linear_137_41)"/>
<path d="M306.233 185.222C294.216 185.698 282.162 186.045 270.09 186.356L280.971 84.6256C281.631 78.4412 277.143 72.8973 270.969 72.2386C265.767 71.6897 261.059 74.7636 259.282 79.4293C244.444 96.0062 229.386 112.528 214.199 128.977C196.174 115.309 172.158 110.369 150.798 117.322C138.066 121.457 127.46 129.124 118.447 137.302C116.285 134.777 114.069 132.271 111.816 129.837C121.983 123.086 131.765 115.694 140.997 107.753C145.724 103.709 146.255 96.5917 142.206 91.8711C138.158 87.1506 131.032 86.6199 126.306 90.6636C114.435 100.837 101.612 110.077 88.2027 118.091C85.1801 119.884 83.1834 122.994 82.7987 126.471C82.3956 129.965 83.6596 133.423 86.1876 135.857C94.2296 143.578 101.74 151.958 108.518 160.814C110.515 163.412 113.538 165.022 116.817 165.205C120.096 165.406 123.283 164.162 125.555 161.802C134.421 152.672 145.174 142.791 157.759 138.711C171.168 134.357 186.648 137.357 198.702 145.627C184.743 160.576 170.71 175.451 156.623 190.089C153.527 193.309 152.63 198.066 154.334 202.201C156.055 206.337 160.049 209.063 164.519 209.154C180.163 209.465 195.881 209.612 211.635 209.612C213.228 209.612 214.822 209.593 216.416 209.593C215.317 212.557 214.016 215.467 212.422 218.211C201.944 236.38 181.537 249.17 159.188 251.566C146.786 252.902 130.666 250.524 122.66 239.82C118.923 234.843 111.871 233.837 106.888 237.551C101.905 241.284 100.879 248.328 104.616 253.305C114.747 266.844 132.259 274.438 152.538 274.438C155.506 274.438 158.528 274.273 161.588 273.944C190.971 270.778 217.918 253.744 231.932 229.446C235.577 223.133 238.27 216.382 240.065 209.429C241.696 209.41 243.326 209.374 244.956 209.356L231.364 336.519C230.704 342.703 235.193 348.247 241.366 348.906C241.769 348.943 242.172 348.979 242.575 348.979C248.254 348.979 253.145 344.698 253.768 338.916L267.653 208.935C280.843 208.624 293.996 208.239 307.112 207.727C313.341 207.471 318.177 202.238 317.92 196.035C317.664 189.833 312.443 184.984 306.215 185.24L306.233 185.222ZM190.715 186.997C198.445 178.855 206.157 170.676 213.833 162.442C217.771 169.834 219.878 178.361 220.098 187.07C210.297 187.106 200.478 187.07 190.696 186.997H190.715ZM242.722 186.85C242.41 172.14 238.179 157.685 230.045 145.664C229.953 145.536 229.862 145.408 229.77 145.28C238.124 136.241 246.459 127.184 254.72 118.091L247.375 186.795C245.817 186.814 244.279 186.814 242.722 186.832V186.85Z" fill="url(#paint1_linear_137_41)"/>
<path d="M152.538 277.585C131.142 277.585 112.731 269.424 102.07 255.189C99.7617 252.097 98.7909 248.31 99.3404 244.485C99.89 240.68 101.887 237.295 104.983 234.989C107.492 233.105 110.497 232.117 113.629 232.117C118.154 232.117 122.477 234.276 125.188 237.899C132.497 247.651 146.988 248.712 152.868 248.712C154.865 248.712 156.88 248.602 158.84 248.401C180.2 246.114 199.672 233.928 209.656 216.619C219.768 199.091 219.383 175.836 208.722 160.045C200.46 147.805 185.512 139.882 170.655 139.882C166.497 139.882 162.467 140.504 158.693 141.73C146.768 145.609 136.363 155.178 127.771 164.016C125.06 166.797 121.305 168.407 117.439 168.407C117.146 168.407 116.853 168.407 116.56 168.389C112.365 168.151 108.5 166.102 105.954 162.753C99.2672 154.044 91.8664 145.755 83.9343 138.162C80.7102 135.07 79.0799 130.569 79.5928 126.141C80.1057 121.713 82.6887 117.688 86.5173 115.401C99.7801 107.478 112.457 98.3482 124.199 88.2849C126.819 86.0344 130.153 84.8085 133.597 84.8085C137.81 84.8085 141.803 86.6382 144.551 89.8401C149.735 95.8781 149.039 104.99 142.994 110.168C134.604 117.359 125.738 124.147 116.56 130.423C117.275 131.209 117.989 132.014 118.685 132.82C129.108 123.781 139.294 117.725 149.754 114.321C156.458 112.144 163.529 111.046 170.765 111.046C195.239 111.046 218.944 123.653 232.646 143.944C249.499 168.901 250.306 203.903 234.661 231.056C220.153 256.214 192.272 273.852 161.917 277.127C158.767 277.475 155.616 277.639 152.52 277.639L152.538 277.585Z" fill="url(#paint2_linear_137_41)"/>
<path d="M152.538 274.419C132.259 274.419 114.747 266.826 104.616 253.286C100.879 248.31 101.905 241.247 106.888 237.533C111.871 233.8 118.942 234.825 122.66 239.802C130.666 250.487 146.786 252.866 159.188 251.548C181.537 249.151 201.926 236.362 212.422 218.193C223.121 199.658 222.681 175.012 211.378 158.271C199.709 140.98 176.646 132.582 157.759 138.711C145.174 142.81 134.403 152.69 125.555 161.802C123.265 164.144 120.096 165.406 116.817 165.205C113.538 165.022 110.515 163.412 108.518 160.814C101.74 151.976 94.2296 143.578 86.1876 135.857C83.6596 133.423 82.3956 129.947 82.7987 126.471C83.2017 122.976 85.1984 119.884 88.2027 118.091C101.63 110.077 114.454 100.837 126.306 90.6635C131.032 86.6199 138.14 87.1505 142.206 91.8711C146.255 96.5917 145.724 103.691 140.997 107.753C131.746 115.675 121.983 123.067 111.816 129.837C114.087 132.289 116.285 134.777 118.447 137.302C127.46 129.105 138.066 121.457 150.798 117.322C179.375 108.046 212.715 119.975 230.082 145.701C246.275 169.688 247.045 203.336 231.968 229.445C217.955 253.744 191.008 270.778 161.624 273.944C158.565 274.273 155.524 274.438 152.575 274.438L152.538 274.419Z" fill="url(#paint3_linear_137_41)"/>
<path d="M211.616 212.759C195.935 212.759 180.071 212.594 164.445 212.301C158.712 212.191 153.582 208.697 151.384 203.409C149.186 198.121 150.34 192.028 154.315 187.893C189.432 151.373 224.366 113.699 258.146 75.9162C260.875 72.8606 264.814 71.1041 268.917 71.1041C272.471 71.1041 275.878 72.4032 278.535 74.7635C284.47 80.0513 284.983 89.1998 279.689 95.1279C253.09 124.879 225.63 154.703 198.024 183.868C202.567 183.886 207.128 183.904 211.671 183.904C243.106 183.904 274.871 183.282 306.086 182.038C306.288 182.038 306.489 182.038 306.691 182.038C314.458 182.038 320.796 188.113 321.089 195.889C321.236 199.731 319.88 203.409 317.279 206.245C314.659 209.081 311.106 210.728 307.24 210.874C275.64 212.137 243.454 212.759 211.598 212.759H211.616Z" fill="url(#paint4_linear_137_41)"/>
<path d="M211.616 209.593C195.88 209.593 180.163 209.447 164.5 209.136C160.03 209.044 156.019 206.318 154.315 202.183C152.593 198.048 153.491 193.309 156.605 190.071C191.74 153.532 226.711 115.822 260.527 78.0203C264.667 73.3912 271.793 72.9887 276.446 77.1238C281.081 81.2589 281.484 88.3764 277.344 93.0238C249.096 124.623 220.024 156.148 190.733 186.997C229.202 187.344 267.946 186.74 306.251 185.222C312.479 184.966 317.719 189.814 317.957 196.017C318.213 202.238 313.359 207.471 307.149 207.709C275.494 208.971 243.509 209.593 211.634 209.593H211.616Z" fill="url(#paint5_linear_137_41)"/>
<path d="M242.593 352.126C242.08 352.126 241.567 352.09 241.055 352.053C233.141 351.211 227.389 344.094 228.231 336.19L255.398 81.8993C256.186 74.544 262.341 69 269.742 69C270.255 69 270.768 69.0183 271.299 69.0915C275.127 69.494 278.571 71.3786 281.008 74.3793C283.444 77.38 284.543 81.1308 284.122 84.9732L256.937 339.245C256.149 346.6 249.994 352.144 242.593 352.144V352.126Z" fill="url(#paint6_linear_137_41)"/>
<path d="M242.593 348.961C242.19 348.961 241.787 348.942 241.384 348.888C235.192 348.229 230.723 342.685 231.382 336.501L258.549 82.2286C259.208 76.0443 264.759 71.5615 270.951 72.2385C277.142 72.8972 281.612 78.4412 280.953 84.6255L253.768 338.897C253.145 344.679 248.254 348.961 242.575 348.961H242.593Z" fill="url(#paint7_linear_137_41)"/>
</g>
<defs>
<linearGradient id="paint0_linear_137_41" x1="79.5378" y1="210.563" x2="321.126" y2="210.563" gradientUnits="userSpaceOnUse">
<stop stop-color="#FF6107"/>
<stop offset="1" stop-color="#D62C3B"/>
</linearGradient>
<linearGradient id="paint1_linear_137_41" x1="82.6887" y1="210.563" x2="317.957" y2="210.563" gradientUnits="userSpaceOnUse">
<stop stop-color="#FF6107"/>
<stop offset="1" stop-color="#D62C3B"/>
</linearGradient>
<linearGradient id="paint2_linear_137_41" x1="153.619" y1="73.8852" x2="170.067" y2="223.21" gradientUnits="userSpaceOnUse">
<stop stop-color="#FF6107"/>
<stop offset="1" stop-color="#D62C3B"/>
</linearGradient>
<linearGradient id="paint3_linear_137_41" x1="243.967" y1="154.556" x2="152.957" y2="179.954" gradientUnits="userSpaceOnUse">
<stop stop-color="#FF6107"/>
<stop offset="1" stop-color="#D62C3B"/>
</linearGradient>
<linearGradient id="paint4_linear_137_41" x1="171.205" y1="209.191" x2="345.109" y2="107.242" gradientUnits="userSpaceOnUse">
<stop stop-color="#FF6107"/>
<stop offset="1" stop-color="#D62C3B"/>
</linearGradient>
<linearGradient id="paint5_linear_137_41" x1="132.516" y1="224.56" x2="256.119" y2="157.891" gradientUnits="userSpaceOnUse">
<stop stop-color="#FF6107"/>
<stop offset="1" stop-color="#D62C3B"/>
</linearGradient>
<linearGradient id="paint6_linear_137_41" x1="251.569" y1="112.345" x2="260.122" y2="295.699" gradientUnits="userSpaceOnUse">
<stop stop-color="#FF6107"/>
<stop offset="1" stop-color="#D62C3B"/>
</linearGradient>
<linearGradient id="paint7_linear_137_41" x1="231.309" y1="210.563" x2="281.026" y2="210.563" gradientUnits="userSpaceOnUse">
<stop stop-color="#FF6107"/>
<stop offset="1" stop-color="#D62C3B"/>
</linearGradient>
<clipPath id="clip0_137_41">
<rect width="243" height="284" fill="white" transform="translate(79 69)"/>
</clipPath>
</defs>
</svg>
