<svg width="24" height="24" viewBox="0 0 24 24" fill="none" xmlns="http://www.w3.org/2000/svg">
<g clip-path="url(#clip0_97_237)">
<path d="M12.0043 7.95732C9.73286 7.95732 7.90072 9.76084 7.90072 11.9968C7.90072 14.2327 9.73286 16.0362 12.0043 16.0362C14.2757 16.0362 16.1079 14.2327 16.1079 11.9968C16.1079 9.76084 14.2757 7.95732 12.0043 7.95732ZM12.0043 14.6229C10.5364 14.6229 9.33644 13.4452 9.33644 11.9968C9.33644 10.5483 10.5329 9.3706 12.0043 9.3706C13.4757 9.3706 14.6721 10.5483 14.6721 11.9968C14.6721 13.4452 13.4721 14.6229 12.0043 14.6229ZM17.2329 7.79209C17.2329 8.31592 16.8043 8.73428 16.2757 8.73428C15.7436 8.73428 15.3186 8.3124 15.3186 7.79209C15.3186 7.27178 15.7471 6.8499 16.2757 6.8499C16.8043 6.8499 17.2329 7.27178 17.2329 7.79209ZM19.9507 8.74834C19.89 7.48623 19.5971 6.36826 18.6579 5.44717C17.7221 4.52607 16.5864 4.23779 15.3043 4.17451C13.9829 4.10068 10.0222 4.10068 8.70072 4.17451C7.42215 4.23428 6.28644 4.52256 5.34715 5.44365C4.40787 6.36474 4.11858 7.48271 4.0543 8.74482C3.9793 10.0456 3.9793 13.9444 4.0543 15.2452C4.11501 16.5073 4.40787 17.6253 5.34715 18.5464C6.28644 19.4675 7.41858 19.7558 8.70072 19.819C10.0222 19.8929 13.9829 19.8929 15.3043 19.819C16.5864 19.7593 17.7221 19.471 18.6579 18.5464C19.5936 17.6253 19.8864 16.5073 19.9507 15.2452C20.0257 13.9444 20.0257 10.0491 19.9507 8.74834ZM18.2436 16.6409C17.965 17.33 17.4257 17.8608 16.7221 18.1386C15.6686 18.5499 13.1686 18.455 12.0043 18.455C10.84 18.455 8.33644 18.5464 7.28644 18.1386C6.58644 17.8643 6.04715 17.3335 5.76501 16.6409C5.34715 15.6038 5.44358 13.1429 5.44358 11.9968C5.44358 10.8507 5.35072 8.38623 5.76501 7.35263C6.04358 6.66357 6.58287 6.13271 7.28644 5.85498C8.34001 5.44365 10.84 5.53857 12.0043 5.53857C13.1686 5.53857 15.6721 5.44717 16.7221 5.85498C17.4221 6.1292 17.9614 6.66006 18.2436 7.35263C18.6614 8.38974 18.565 10.8507 18.565 11.9968C18.565 13.1429 18.6614 15.6073 18.2436 16.6409Z" fill="#0E0F1D"/>
</g>
<defs>
<clipPath id="clip0_97_237">
<rect width="16" height="18" fill="white" transform="translate(4 3)"/>
</clipPath>
</defs>
</svg>
