<svg width="553" height="324" viewBox="0 0 553 324" fill="none" xmlns="http://www.w3.org/2000/svg">
<g clip-path="url(#clip0_133_3)">
<path d="M0 177.39L7.67037 160.053C14.3348 163.989 23.1997 166.502 30.9749 166.502C37.7231 166.502 40.1542 165.099 40.1542 162.67C40.1542 153.792 1.13169 160.953 1.13169 134.654C1.13169 121.547 12.1343 110.869 34.0137 110.869C43.4864 110.869 53.2734 112.879 60.6504 117.003L53.483 134.236C46.5252 130.718 39.9656 129.001 33.8251 129.001C26.8672 129.001 24.6458 131.011 24.6458 133.44C24.6458 141.899 63.6682 134.843 63.6682 160.848C63.6682 173.746 52.6866 184.634 30.7863 184.634C18.9873 184.634 7.08356 181.703 0.0209573 177.369L0 177.39Z" fill="black"/>
<path d="M136.851 139.093C136.851 155.425 124.34 165.706 104.682 165.706H94.4964V183.043H70.689V112.502H104.682C124.34 112.502 136.851 122.782 136.851 139.093ZM112.855 139.093C112.855 133.964 109.732 130.823 103.173 130.823H94.4964V147.343H103.173C109.732 147.343 112.855 144.223 112.855 139.072V139.093Z" fill="black"/>
<path d="M189.181 170.731H162.356L157.62 183.022H133.414L164.284 112.481H187.693L218.564 183.022H193.96L189.223 170.731H189.181ZM182.622 153.604L175.769 135.869L168.916 153.604H182.643H182.622Z" fill="black"/>
<path d="M252.598 165.287H246.143V183.022H222.336V112.502H256.329C275.987 112.502 288.498 122.782 288.498 139.093C288.498 149.269 283.657 156.933 275.19 161.267L290.007 183.043H264.586L252.577 165.308L252.598 165.287ZM254.82 130.823H246.143V147.343H254.82C261.379 147.343 264.502 144.223 264.502 139.072C264.502 133.922 261.379 130.802 254.82 130.802V130.823Z" fill="black"/>
<path d="M326.221 159.655L320.877 165.601V183.043H297.468V112.502H320.877V138.088L344.077 112.502H370.001L341.751 143.532L371.405 183.043H343.867L326.221 159.655Z" fill="black"/>
<path d="M463.156 324C462.569 324 461.982 323.958 461.396 323.895C457.016 323.435 453.076 321.278 450.288 317.844C447.522 314.41 446.244 310.118 446.726 305.721L461.228 169.936C459.3 175.338 456.932 180.509 454.123 185.367C437.525 214.157 405.628 234.342 370.902 238.09C367.297 238.488 363.693 238.676 360.151 238.676C335.673 238.676 314.611 229.338 302.414 213.048C299.773 209.509 298.662 205.175 299.291 200.82C299.92 196.465 302.204 192.591 305.746 189.953C308.617 187.796 312.054 186.665 315.638 186.665C320.814 186.665 325.76 189.136 328.862 193.282C337.224 204.442 353.801 205.656 360.528 205.656C362.813 205.656 365.118 205.531 367.36 205.3C391.796 202.683 414.074 188.738 425.496 168.931C426.292 167.549 427.047 166.083 427.78 164.534H427.738C409.799 164.534 391.65 164.345 373.773 164.01C367.214 163.884 361.346 159.885 358.831 153.834C356.316 147.783 357.636 140.81 362.184 136.078C376.099 121.61 390.874 105.99 407.305 88.4226C399.152 83.6906 389.889 81.1361 380.857 81.1361C376.099 81.1361 371.531 81.848 367.235 83.2509C353.591 87.6898 341.688 98.6405 331.859 108.754C328.757 111.936 324.461 113.779 320.039 113.779C319.703 113.779 319.368 113.779 319.033 113.758C314.254 113.486 309.812 111.141 306.898 107.33C299.249 97.3633 290.782 87.8782 281.708 79.1888C278.019 75.6502 276.154 70.4994 276.741 65.4323C277.328 60.3652 280.283 55.7588 284.663 53.1415C299.836 44.0752 314.338 33.627 327.772 22.1109C330.769 19.5355 334.583 18.1326 338.523 18.1326C343.343 18.1326 347.912 20.2264 351.055 23.8906C356.986 30.8003 356.19 41.2276 349.274 47.1531C339.676 55.3819 329.532 63.15 319.033 70.3319C319.85 71.2322 320.667 72.1535 321.464 73.0748C333.388 62.7313 345.041 55.8007 357.007 51.9062C364.678 49.4145 372.746 48.1582 381.024 48.1582C398.377 48.1582 415.709 53.7278 430.19 63.8829C447.229 45.4153 463.68 27.3245 479.125 10.0713C481.724 4.08296 487.697 0.104675 494.236 0.104675C494.823 0.104675 495.409 0.146552 496.017 0.209367C500.397 0.670011 504.337 2.82666 507.124 6.26055C509.912 9.69444 511.169 13.9868 510.687 18.3839L498.679 130.676C512.741 130.32 524.645 129.943 535.836 129.504C536.066 129.504 536.297 129.504 536.528 129.504C545.413 129.504 552.644 136.455 553 145.354C553.168 149.751 551.617 153.96 548.641 157.205C545.644 160.451 541.578 162.335 537.156 162.503C524.184 163.026 510.415 163.445 495.137 163.822L479.587 309.406C478.685 317.823 471.644 324.168 463.177 324.168L463.156 324ZM412.188 131.472C417.26 131.493 422.31 131.514 427.382 131.514C429.457 131.514 431.552 131.514 433.627 131.514C433.103 125.107 431.615 118.93 429.289 113.318C423.463 119.537 417.742 125.63 412.188 131.493V131.472ZM453.097 87.6688C459.971 98.494 464.393 110.889 466.132 124.123L472.252 66.8352C466.237 73.4098 459.908 80.3195 453.097 87.6688Z" fill="url(#paint0_linear_133_3)"/>
<path d="M535.962 133C522.214 133.545 508.424 133.943 494.613 134.299L507.062 17.8814C507.816 10.8042 502.682 4.45987 495.619 3.70609C489.667 3.07794 484.281 6.59558 482.248 11.9349C465.273 30.905 448.046 49.8123 430.672 68.6359C410.05 52.995 382.575 47.3416 358.139 55.2982C343.574 60.0302 331.44 68.8034 321.129 78.1629C318.656 75.2734 316.12 72.4048 313.542 69.62C325.173 61.8938 336.364 53.4347 346.927 44.3474C352.334 39.7201 352.942 31.575 348.31 26.1729C343.679 20.7708 335.526 20.1636 330.119 24.791C316.539 36.4327 301.869 47.0066 286.528 56.1776C283.07 58.2296 280.786 61.7891 280.346 65.7674C279.885 69.7666 281.331 73.7239 284.223 76.5087C293.423 85.3447 302.015 94.9345 309.77 105.069C312.054 108.042 315.512 109.884 319.263 110.094C323.015 110.324 326.661 108.9 329.26 106.199C339.403 95.7511 351.705 84.4444 366.103 79.7751C381.444 74.7918 399.153 78.2257 412.942 87.6898C396.973 104.796 380.92 121.819 364.804 138.57C361.262 142.255 360.235 147.699 362.184 152.431C364.154 157.163 368.723 160.283 373.836 160.388C391.734 160.744 409.715 160.911 427.738 160.911C429.562 160.911 431.385 160.89 433.208 160.89C431.951 164.282 430.463 167.611 428.639 170.752C416.652 191.544 393.305 206.18 367.738 208.923C353.549 210.451 335.107 207.729 325.949 195.48C321.673 189.785 313.605 188.634 307.904 192.884C302.204 197.155 301.03 205.217 305.306 210.912C316.895 226.406 336.93 235.096 360.13 235.096C363.525 235.096 366.983 234.907 370.483 234.53C404.098 230.908 434.927 211.415 450.959 183.608C455.129 176.385 458.21 168.658 460.264 160.702C462.129 160.681 463.994 160.639 465.86 160.618L450.309 306.14C449.555 313.217 454.689 319.561 461.752 320.315C462.213 320.357 462.674 320.399 463.135 320.399C469.632 320.399 475.228 315.499 475.94 308.883L491.826 160.136C506.915 159.781 521.962 159.341 536.968 158.755C544.093 158.461 549.626 152.473 549.332 145.375C549.039 138.277 543.066 132.728 535.941 133.021L535.962 133ZM403.805 135.031C412.649 125.714 421.472 116.354 430.253 106.932C434.759 115.391 437.169 125.149 437.421 135.115C426.208 135.157 414.975 135.115 403.784 135.031H403.805ZM463.303 134.864C462.947 118.029 458.105 101.488 448.8 87.7317C448.696 87.5851 448.591 87.4385 448.486 87.292C458.043 76.9484 467.578 66.584 477.03 56.1776L468.626 134.801C466.845 134.822 465.084 134.822 463.303 134.843V134.864Z" fill="url(#paint1_linear_133_3)"/>
<path d="M360.13 238.697C335.652 238.697 314.59 229.359 302.393 213.069C299.752 209.53 298.641 205.196 299.27 200.82C299.899 196.465 302.183 192.591 305.725 189.953C308.596 187.796 312.033 186.665 315.617 186.665C320.793 186.665 325.739 189.136 328.841 193.282C337.203 204.442 353.78 205.656 360.507 205.656C362.792 205.656 365.097 205.531 367.339 205.301C391.776 202.683 414.053 188.738 425.475 168.931C437.043 148.872 436.603 122.259 424.406 104.189C414.954 90.1815 397.853 81.1152 380.857 81.1152C376.1 81.1152 371.489 81.8271 367.172 83.23C353.529 87.6689 341.625 98.6196 331.796 108.733C328.694 111.915 324.398 113.758 319.976 113.758C319.641 113.758 319.305 113.758 318.97 113.737C314.171 113.465 309.749 111.12 306.836 107.288C299.186 97.3215 290.72 87.8364 281.645 79.147C277.957 75.6084 276.091 70.4576 276.678 65.3905C277.265 60.3234 280.22 55.717 284.6 53.0997C299.773 44.0334 314.276 33.5851 327.709 22.069C330.706 19.4936 334.52 18.0908 338.46 18.0908C343.28 18.0908 347.849 20.1846 350.993 23.8488C356.924 30.7585 356.127 41.1858 349.211 47.1113C339.613 55.3401 329.47 63.1082 318.97 70.2901C319.787 71.1904 320.605 72.1117 321.401 73.033C333.326 62.6894 344.978 55.7588 356.945 51.8643C364.615 49.3727 372.704 48.1163 380.983 48.1163C408.982 48.1163 436.1 62.5429 451.776 85.7635C471.057 114.323 471.979 154.378 454.082 185.451C437.483 214.241 405.587 234.426 370.86 238.174C367.256 238.572 363.651 238.76 360.109 238.76L360.13 238.697Z" fill="url(#paint2_linear_133_3)"/>
<path d="M360.13 235.075C336.93 235.075 316.895 226.385 305.306 210.891C301.03 205.196 302.204 197.114 307.904 192.863C313.605 188.592 321.694 189.764 325.949 195.459C335.107 207.687 353.549 210.409 367.738 208.902C393.305 206.159 416.631 191.523 428.639 170.731C440.879 149.521 440.376 121.317 427.445 102.158C414.095 82.3714 387.71 72.7607 366.103 79.7751C351.705 84.4653 339.382 95.772 329.26 106.199C326.64 108.879 323.015 110.324 319.263 110.094C315.512 109.884 312.054 108.042 309.77 105.069C302.015 94.9554 293.423 85.3447 284.223 76.5087C281.331 73.7239 279.885 69.7456 280.346 65.7673C280.807 61.7681 283.091 58.2295 286.528 56.1776C301.89 47.0066 316.56 36.4327 330.119 24.791C335.526 20.1636 343.658 20.7708 348.31 26.1729C352.942 31.575 352.334 39.6991 346.927 44.3474C336.344 53.4137 325.173 61.8728 313.542 69.62C316.141 72.4257 318.656 75.2733 321.129 78.1628C331.44 68.7825 343.574 60.0302 358.139 55.2982C390.832 44.6824 428.975 58.3342 448.842 87.7735C467.369 115.224 468.249 153.729 451.001 183.608C434.969 211.414 404.14 230.908 370.525 234.53C367.025 234.907 363.546 235.096 360.172 235.096L360.13 235.075Z" fill="url(#paint3_linear_133_3)"/>
<path d="M427.717 164.513C409.778 164.513 391.629 164.324 373.752 163.989C367.193 163.864 361.325 159.864 358.81 153.813C356.295 147.762 357.615 140.789 362.163 136.057C402.338 94.2644 442.304 51.1524 480.949 7.91468C484.072 4.41798 488.577 2.4079 493.272 2.4079C497.338 2.4079 501.236 3.89452 504.274 6.59557C511.065 12.6468 511.651 23.1159 505.595 29.9C475.165 63.9457 443.75 98.0752 412.167 131.451C417.365 131.472 422.583 131.493 427.78 131.493C463.743 131.493 500.083 130.781 535.794 129.357C536.025 129.357 536.255 129.357 536.486 129.357C545.372 129.357 552.623 136.309 552.958 145.207C553.126 149.604 551.575 153.813 548.599 157.059C545.602 160.304 541.537 162.188 537.115 162.356C500.963 163.801 464.141 164.513 427.697 164.513H427.717Z" fill="url(#paint4_linear_133_3)"/>
<path d="M427.717 160.89C409.715 160.89 391.734 160.723 373.815 160.367C368.702 160.262 364.112 157.142 362.163 152.41C360.193 147.678 361.22 142.255 364.783 138.549C404.979 96.7352 444.986 53.5813 483.673 10.3226C488.41 5.02523 496.562 4.56459 501.885 9.29666C507.187 14.0287 507.649 22.1737 502.912 27.4921C470.596 63.6526 437.337 99.7294 403.826 135.031C447.836 135.429 492.161 134.738 535.983 133C543.108 132.707 549.102 138.256 549.375 145.354C549.668 152.473 544.114 158.461 537.01 158.734C500.796 160.178 464.204 160.89 427.738 160.89H427.717Z" fill="url(#paint5_linear_133_3)"/>
<path d="M463.156 324C462.569 324 461.982 323.958 461.396 323.916C452.342 322.953 445.762 314.808 446.726 305.763L477.805 14.7615C478.706 6.34432 485.748 0 494.215 0C494.802 0 495.388 0.0209384 495.996 0.104692C500.376 0.565335 504.316 2.72199 507.104 6.15587C509.891 9.58976 511.148 13.8821 510.666 18.2792L479.566 309.259C478.664 317.677 471.623 324.021 463.156 324.021V324Z" fill="url(#paint6_linear_133_3)"/>
<path d="M463.156 320.378C462.695 320.378 462.234 320.357 461.773 320.294C454.689 319.54 449.576 313.196 450.33 306.119L481.41 15.1385C482.164 8.06129 488.514 2.9314 495.598 3.70611C502.681 4.4599 507.795 10.8042 507.041 17.8814L475.94 308.862C475.227 315.478 469.632 320.378 463.135 320.378H463.156Z" fill="url(#paint7_linear_133_3)"/>
</g>
<defs>
<linearGradient id="paint0_linear_133_3" x1="276.615" y1="162" x2="553" y2="162" gradientUnits="userSpaceOnUse">
<stop stop-color="#FF6107"/>
<stop offset="1" stop-color="#D62C3B"/>
</linearGradient>
<linearGradient id="paint1_linear_133_3" x1="280.22" y1="162" x2="549.374" y2="162" gradientUnits="userSpaceOnUse">
<stop stop-color="#FF6107"/>
<stop offset="1" stop-color="#D62C3B"/>
</linearGradient>
<linearGradient id="paint2_linear_133_3" x1="361.367" y1="5.59057" x2="380.195" y2="176.472" gradientUnits="userSpaceOnUse">
<stop stop-color="#FF6107"/>
<stop offset="1" stop-color="#D62C3B"/>
</linearGradient>
<linearGradient id="paint3_linear_133_3" x1="464.728" y1="97.9077" x2="360.605" y2="126.956" gradientUnits="userSpaceOnUse">
<stop stop-color="#FF6107"/>
<stop offset="1" stop-color="#D62C3B"/>
</linearGradient>
<linearGradient id="paint4_linear_133_3" x1="381.486" y1="160.43" x2="580.467" y2="43.8136" gradientUnits="userSpaceOnUse">
<stop stop-color="#FF6107"/>
<stop offset="1" stop-color="#D62C3B"/>
</linearGradient>
<linearGradient id="paint5_linear_133_3" x1="337.224" y1="178.018" x2="478.649" y2="101.758" gradientUnits="userSpaceOnUse">
<stop stop-color="#FF6107"/>
<stop offset="1" stop-color="#D62C3B"/>
</linearGradient>
<linearGradient id="paint6_linear_133_3" x1="473.425" y1="49.6029" x2="483.216" y2="259.427" gradientUnits="userSpaceOnUse">
<stop stop-color="#FF6107"/>
<stop offset="1" stop-color="#D62C3B"/>
</linearGradient>
<linearGradient id="paint7_linear_133_3" x1="450.246" y1="162" x2="507.124" y2="162" gradientUnits="userSpaceOnUse">
<stop stop-color="#FF6107"/>
<stop offset="1" stop-color="#D62C3B"/>
</linearGradient>
<clipPath id="clip0_133_3">
<rect width="553" height="324" fill="white"/>
</clipPath>
</defs>
</svg>
