<svg width="45" height="45" viewBox="0 0 45 45" fill="none" xmlns="http://www.w3.org/2000/svg">
<path d="M22.3958 4.40709e-07H22.2763C17.4671 -2.63814e-05 13.6983 -4.76241e-05 10.7577 0.395306C7.74785 0.799972 5.3728 1.64443 3.50862 3.50862C1.64443 5.3728 0.799972 7.74785 0.395306 10.7577C-4.76241e-05 13.6983 -2.63814e-05 17.4671 4.40709e-07 22.2763V22.5154C-2.63814e-05 27.3245 -4.76241e-05 31.0933 0.395306 34.0339C0.799971 37.0438 1.64443 39.4189 3.50862 41.2831C5.3728 43.1472 7.74785 43.9917 10.7577 44.3964C13.6983 44.7917 17.4672 44.7917 22.2763 44.7917H22.5154C27.3245 44.7917 31.0933 44.7917 34.0339 44.3964C37.0438 43.9917 39.4189 43.1472 41.2831 41.2831C43.1472 39.4189 43.9917 37.0438 44.3964 34.0339C44.7917 31.0933 44.7917 27.3245 44.7917 22.5154V22.3958C44.7917 21.5329 44.0921 20.8333 43.2292 20.8333C42.3662 20.8333 41.6667 21.5329 41.6667 22.3958C41.6667 27.3505 41.6634 30.9093 41.2992 33.6175C40.9412 36.2809 40.2601 37.8866 39.0733 39.0733C37.8866 40.2601 36.2809 40.9412 33.6175 41.2992C30.9093 41.6634 27.3505 41.6667 22.3958 41.6667C17.4412 41.6667 13.8824 41.6634 11.1741 41.2992C8.51078 40.9412 6.90511 40.2601 5.71833 39.0733C4.53154 37.8866 3.85052 36.2809 3.49244 33.6175C3.12832 30.9093 3.125 27.3505 3.125 22.3958C3.125 17.4412 3.12832 13.8824 3.49244 11.1741C3.85052 8.51078 4.53154 6.90511 5.71833 5.71833C6.90511 4.53154 8.51078 3.85052 11.1741 3.49244C13.8824 3.12832 17.4412 3.125 22.3958 3.125C23.2588 3.125 23.9583 2.42545 23.9583 1.5625C23.9583 0.699556 23.2588 4.40709e-07 22.3958 4.40709e-07Z" fill="#909090"/>
<path d="M23.3743 19.2076C22.7641 19.8178 22.7641 20.8072 23.3743 21.4174C23.9845 22.0275 24.9738 22.0275 25.584 21.4174L41.6667 5.33471V12.6953C41.6667 13.5583 42.3662 14.2578 43.2292 14.2578C44.0921 14.2578 44.7917 13.5583 44.7917 12.6953V1.5625C44.7917 0.699556 44.0921 4.40709e-07 43.2292 4.40709e-07H32.0964C31.2334 4.40709e-07 30.5339 0.699556 30.5339 1.5625C30.5339 2.42544 31.2334 3.125 32.0964 3.125H39.457L23.3743 19.2076Z" fill="#909090"/>
</svg>
