<svg width="24" height="24" viewBox="0 0 24 24" fill="none" xmlns="http://www.w3.org/2000/svg">
<g clip-path="url(#clip0_97_245)">
<path d="M20.9998 6.70441C20.3257 6.98888 19.6108 7.17561 18.8787 7.25838C19.6412 6.82297 20.2267 6.13349 20.5024 5.31198C19.7776 5.72179 18.9845 6.01052 18.1574 6.16571C17.4838 5.48199 16.5241 5.05469 15.4619 5.05469C13.4224 5.05469 11.7689 6.62992 11.7689 8.57277C11.7689 8.84855 11.8015 9.11703 11.8645 9.37459C8.79533 9.22782 6.07424 7.82722 4.25279 5.69869C3.93498 6.21829 3.75287 6.82271 3.75287 7.46738C3.75287 8.68799 4.40488 9.76478 5.39572 10.3957C4.80928 10.3782 4.23574 10.2273 3.72299 9.95562C3.72278 9.97036 3.72278 9.9851 3.72278 9.9999C3.72278 11.7045 4.99572 13.1265 6.68504 13.4497C6.14124 13.5906 5.57082 13.6112 5.01737 13.5099C5.48727 14.9077 6.85112 15.9248 8.46705 15.9532C7.20318 16.8968 5.61081 17.4593 3.8807 17.4593C3.58258 17.4593 3.28867 17.4426 2.99976 17.4101C4.63403 18.4083 6.57515 18.9908 8.66062 18.9908C15.4533 18.9908 19.1677 13.6299 19.1677 8.98078C19.1677 8.82819 19.1642 8.67647 19.157 8.52561C19.88 8.0277 20.504 7.41098 20.9998 6.70441Z" fill="#0E0F1D"/>
</g>
<defs>
<clipPath id="clip0_97_245">
<rect width="18" height="14" fill="white" transform="translate(2.99976 5)"/>
</clipPath>
</defs>
</svg>
