<svg width="106" height="92" viewBox="0 0 106 92" fill="none" xmlns="http://www.w3.org/2000/svg">
<g clip-path="url(#clip0_97_145)">
<path d="M8.13288 28.6862H7.58887V55.969H8.13288V28.6862Z" fill="white"/>
<path d="M13.7815 33.4794V50.6565C13.5458 50.6657 13.301 50.6748 13.0562 50.6748V33.4156C13.301 33.443 13.5458 33.4612 13.7815 33.4794Z" fill="white"/>
<path d="M22.3587 42.5372C22.3587 47.3304 24.1993 53.5543 21.8873 56.5432C19.0947 60.1609 12.7842 61.0357 7.98785 63.0951C7.71585 63.2136 7.45291 63.3958 7.17184 63.4414C6.22889 63.6054 5.01394 64.4255 4.57873 62.8764C4.26139 61.7464 5.43101 61.391 6.18356 61.0721C9.75588 59.5503 13.3191 57.9739 16.9821 56.7163C19.3123 55.9235 20.2371 54.7754 20.1646 52.1965C19.9651 45.5991 19.956 38.9834 20.1646 32.3859C20.2462 29.7888 19.2216 28.668 16.9912 27.7932C13.2466 26.3261 9.60174 24.5947 5.92969 22.9362C5.10461 22.5626 4.17073 21.9703 4.62407 20.9315C5.08647 19.8653 6.12009 20.248 6.94517 20.6125C11.5964 22.6264 16.2205 24.704 20.8899 26.6815C22.667 27.4378 22.667 28.832 22.6489 30.3811C22.6126 34.4362 22.6398 38.4913 22.6398 42.5372H22.3497H22.3587Z" fill="white"/>
<path d="M92.3997 33.3335V50.702C92.6717 50.7202 92.9528 50.7384 93.2248 50.7567V33.3426C92.9528 33.3426 92.6717 33.3426 92.3997 33.3335ZM97.731 28.5586V56.0146C97.9939 56.0146 98.2568 56.0146 98.5107 56.0055V28.5495C98.2568 28.5495 97.9939 28.5586 97.731 28.5586ZM101.702 62.7943C101.693 61.3272 100.252 61.0903 99.1001 60.6073C95.7997 59.2404 92.5538 57.7369 89.181 56.5796C86.8871 55.7959 85.9169 54.7024 85.9985 52.1053C86.2071 45.5443 86.2071 38.956 86.0076 32.3858C85.926 29.8161 86.9143 28.6588 89.1356 27.784C92.8712 26.3169 96.5432 24.6949 100.134 22.9179C101.72 22.1342 102.654 21.059 100.95 20.3938H100.941C100.641 20.2753 100.27 20.1751 99.8073 20.0839C95.3373 22.116 90.9037 24.2483 86.3703 26.1438C84.3484 26.9912 83.3148 27.9936 83.3601 30.3993C83.5052 38.3363 83.4054 46.2733 83.4326 54.2194C83.4326 55.3494 83.0246 56.8256 84.4934 57.345C90.2055 59.3953 95.428 62.7852 101.593 63.5689M101.702 62.7943C101.693 61.3272 100.252 61.0903 99.1001 60.6073C95.7997 59.2404 92.5538 57.7369 89.181 56.5796C86.8871 55.7959 85.9169 54.7024 85.9985 52.1053C86.2071 45.5443 86.2071 38.956 86.0076 32.3858C85.926 29.8161 86.9143 28.6588 89.1356 27.784C92.8712 26.3169 96.5432 24.6949 100.134 22.9179C101.72 22.1342 102.654 21.059 100.95 20.3938H100.941C100.641 20.2753 100.27 20.1751 99.8073 20.0839C95.3373 22.116 90.9037 24.2483 86.3703 26.1438C84.3484 26.9912 83.3148 27.9936 83.3601 30.3993C83.5052 38.3363 83.4054 46.2733 83.4326 54.2194C83.4326 55.3494 83.0246 56.8256 84.4934 57.345C90.2055 59.3953 95.428 62.7852 101.593 63.5689M97.731 28.5586V56.0146C97.9939 56.0146 98.2568 56.0146 98.5107 56.0055V28.5495C98.2568 28.5495 97.9939 28.5586 97.731 28.5586ZM92.3997 33.3335V50.702C92.6717 50.7202 92.9528 50.7384 93.2248 50.7567V33.3426C92.9528 33.3426 92.6717 33.3426 92.3997 33.3335ZM92.3997 33.3335V50.702C92.6717 50.7202 92.9528 50.7384 93.2248 50.7567V33.3426C92.9528 33.3426 92.6717 33.3426 92.3997 33.3335ZM97.731 28.5586V56.0146C97.9939 56.0146 98.2568 56.0146 98.5107 56.0055V28.5495C98.2568 28.5495 97.9939 28.5586 97.731 28.5586ZM101.702 62.7943C101.693 61.3272 100.252 61.0903 99.1001 60.6073C95.7997 59.2404 92.5538 57.7369 89.181 56.5796C86.8871 55.7959 85.9169 54.7024 85.9985 52.1053C86.2071 45.5443 86.2071 38.956 86.0076 32.3858C85.926 29.8161 86.9143 28.6588 89.1356 27.784C92.8712 26.3169 96.5432 24.6949 100.134 22.9179C101.72 22.1342 102.654 21.059 100.95 20.3938H100.941C100.641 20.2753 100.27 20.1751 99.8073 20.0839C95.3373 22.116 90.9037 24.2483 86.3703 26.1438C84.3484 26.9912 83.3148 27.9936 83.3601 30.3993C83.5052 38.3363 83.4054 46.2733 83.4326 54.2194C83.4326 55.3494 83.0246 56.8256 84.4934 57.345C90.2055 59.3953 95.428 62.7852 101.593 63.5689M101.702 62.7943C101.693 61.3272 100.252 61.0903 99.1001 60.6073C95.7997 59.2404 92.5538 57.7369 89.181 56.5796C86.8871 55.7959 85.9169 54.7024 85.9985 52.1053C86.2071 45.5443 86.2071 38.956 86.0076 32.3858C85.926 29.8161 86.9143 28.6588 89.1356 27.784C92.8712 26.3169 96.5432 24.6949 100.134 22.9179C101.72 22.1342 102.654 21.059 100.95 20.3938H100.941C100.641 20.2753 100.27 20.1751 99.8073 20.0839C95.3373 22.116 90.9037 24.2483 86.3703 26.1438C84.3484 26.9912 83.3148 27.9936 83.3601 30.3993C83.5052 38.3363 83.4054 46.2733 83.4326 54.2194C83.4326 55.3494 83.0246 56.8256 84.4934 57.345C90.2055 59.3953 95.428 62.7852 101.593 63.5689M97.731 28.5586V56.0146C97.9939 56.0146 98.2568 56.0146 98.5107 56.0055V28.5495C98.2568 28.5495 97.9939 28.5586 97.731 28.5586ZM92.3997 33.3335V50.702C92.6717 50.7202 92.9528 50.7384 93.2248 50.7567V33.3426C92.9528 33.3426 92.6717 33.3426 92.3997 33.3335ZM92.3997 33.3335V50.702C92.6717 50.7202 92.9528 50.7384 93.2248 50.7567V33.3426C92.9528 33.3426 92.6717 33.3426 92.3997 33.3335ZM97.731 28.5586V56.0146C97.9939 56.0146 98.2568 56.0146 98.5107 56.0055V28.5495C98.2568 28.5495 97.9939 28.5586 97.731 28.5586ZM101.702 62.7943C101.693 61.3272 100.252 61.0903 99.1001 60.6073C95.7997 59.2404 92.5538 57.7369 89.181 56.5796C86.8871 55.7959 85.9169 54.7024 85.9985 52.1053C86.2071 45.5443 86.2071 38.956 86.0076 32.3858C85.926 29.8161 86.9143 28.6588 89.1356 27.784C92.8712 26.3169 96.5432 24.6949 100.134 22.9179C101.72 22.1342 102.654 21.059 100.95 20.3938H100.941C100.641 20.2753 100.27 20.1751 99.8073 20.0839C95.3373 22.116 90.9037 24.2483 86.3703 26.1438C84.3484 26.9912 83.3148 27.9936 83.3601 30.3993C83.5052 38.3363 83.4054 46.2733 83.4326 54.2194C83.4326 55.3494 83.0246 56.8256 84.4934 57.345C90.2055 59.3953 95.428 62.7852 101.593 63.5689M101.702 62.7943C101.693 61.3272 100.252 61.0903 99.1001 60.6073C95.7997 59.2404 92.5538 57.7369 89.181 56.5796C86.8871 55.7959 85.9169 54.7024 85.9985 52.1053C86.2071 45.5443 86.2071 38.956 86.0076 32.3858C85.926 29.8161 86.9143 28.6588 89.1356 27.784C92.8712 26.3169 96.5432 24.6949 100.134 22.9179C101.72 22.1342 102.654 21.059 100.95 20.3938H100.941C100.641 20.2753 100.27 20.1751 99.8073 20.0839C95.3373 22.116 90.9037 24.2483 86.3703 26.1438C84.3484 26.9912 83.3148 27.9936 83.3601 30.3993C83.5052 38.3363 83.4054 46.2733 83.4326 54.2194C83.4326 55.3494 83.0246 56.8256 84.4934 57.345C90.2055 59.3953 95.428 62.7852 101.593 63.5689M98.5107 56.0055V28.5495C98.2568 28.5495 97.9939 28.5586 97.731 28.5586V56.0146C97.9939 56.0146 98.2568 56.0146 98.5107 56.0055ZM93.2248 50.7567V33.3426C92.9528 33.3426 92.6717 33.3426 92.3997 33.3335V50.702C92.6717 50.7202 92.9528 50.7384 93.2248 50.7567ZM105.891 24.7313C105.891 17.6509 104.83 15.9742 98.139 13.4044C90.6861 10.5431 82.8705 9.2218 74.9552 8.58393C71.6186 8.31055 68.8441 7.60889 66.1513 5.08472C58.8979 -1.71322 46.8934 -1.68588 39.5221 5.10294C36.8383 7.57244 34.082 8.29233 30.7182 8.61126C21.7874 9.46784 12.9201 10.7709 4.74184 14.8625C1.49592 16.4936 -0.145172 18.8355 0.00896395 22.7083C0.262834 29.0142 0.0814984 35.3292 0.0724316 41.635V57.4088C0.0814984 66.9041 1.26925 68.5716 10.2545 71.5332C11.6689 71.9979 13.1286 72.3442 14.5702 72.7087C32.8127 77.2285 51.3633 77.0645 69.8959 75.9346C80.0144 75.3149 90.1421 74.03 99.6531 69.9659C103.942 68.1342 106.118 65.3731 105.991 60.3248C105.683 48.4694 105.9 36.5958 105.891 24.7313ZM64.6915 7.31729H41C48.3441 1.04787 57.3202 1.0661 64.6915 7.31729ZM16.5105 70.7404C21.3069 68.4987 25.6046 68.4987 29.5758 67.2321C35.442 65.3458 40.7552 62.7305 43.1488 56.5522C43.9104 54.5748 44.7536 54.9393 46.1137 55.6228C50.7105 57.9464 55.3255 57.8098 59.8861 55.5316C61.0648 54.9393 61.7358 54.6021 62.4611 56.3335C65.5891 63.824 72.2986 66.3117 79.4432 68.034C82.4443 68.7539 85.5815 68.9544 89.2535 70.7678C64.7459 75.2147 41.1178 75.2785 16.5105 70.7404ZM32.2687 32.076C32.3412 31.1648 34.3359 30.3355 32.3865 29.3422C29.1769 27.1188 31.1081 23.9932 31.3166 21.3961C31.4889 19.2365 33.9551 20.0293 35.4602 20.0201C47.1019 19.9655 58.7346 20.093 70.3674 19.9199C73.7765 19.8743 74.8917 21.0681 74.6197 24.3577C74.384 27.1917 74.3386 30.0712 74.6288 32.887C75.0096 36.6323 73.3775 37.7075 69.9594 37.3339C68.1913 37.1426 66.3598 37.1152 64.6009 37.343C61.4003 37.7531 59.4781 36.5958 57.8098 33.7254C54.8359 28.6132 50.6561 28.5677 47.9452 33.7163C46.2406 36.9603 44.1371 37.8169 40.8731 37.4706C39.105 37.2793 37.3007 37.4524 35.5055 37.4342C30.5369 37.3977 29.9748 36.4591 32.2687 32.076ZM37.2645 40.6782C38.1167 38.719 41.3536 39.767 43.3936 40.0221C46.8843 40.4595 48.0721 38.3728 49.4593 35.9397C52.0161 31.4655 53.6663 31.4199 56.0599 36.0582C57.6557 39.1382 59.596 40.5598 63.0776 40.0495C64.9454 39.7761 66.8857 40.0039 69.3156 40.0039C66.9401 46.0819 63.6307 50.7293 58.1816 53.4357C53.2492 55.887 48.5526 54.83 44.4091 51.431C42.8043 50.1188 41.3989 48.515 40.1477 46.8565C38.7242 44.9793 36.4031 42.6465 37.2645 40.6782ZM103.216 63.0495C103.216 63.5598 102.808 64.0792 102.573 64.5895C98.3112 69.0364 94.4488 69.975 89.19 67.7424C85.9804 66.3846 82.5169 66.1659 79.1894 65.364C74.7829 64.3161 70.5578 62.8308 67.339 59.4318C63.9843 55.887 63.9843 53.5633 66.8857 49.7452C68.2367 47.9682 69.4697 46.0637 70.4762 44.0681C71.546 41.954 72.4709 40.2773 75.0458 39.1929C79.3888 37.3521 79.5611 29.2785 78.4096 24.8771C77.2763 20.5031 73.6677 18.2159 72.4437 14.3248C72.1263 13.3042 71.673 12.1287 70.3492 12.4476C68.4815 12.9033 69.8415 14.097 70.0772 14.8898C70.6847 17.0039 69.8052 17.4504 67.8559 17.4413C57.1026 17.3775 46.3494 17.4048 35.3242 17.4048C35.5236 16.3842 35.7412 15.6826 35.7775 14.9718C35.8319 14.1061 37.0559 12.8121 35.2516 12.4932C34.0185 12.2836 33.6649 13.3953 33.1481 14.3886C31.1625 18.2067 28.2067 21.4508 26.6654 25.5697C26.4024 26.2622 26.1758 26.9001 26.0942 27.62C25.532 32.4678 28.1342 37.5162 32.6857 39.9492C33.7919 40.5506 33.9913 41.4619 34.4175 42.3823C35.6868 45.1069 36.8565 47.9956 39.1141 49.9912C42.3419 52.8525 41.1904 55.5863 39.232 58.2472C36.122 62.4754 31.4708 64.1976 26.6019 65.3276C22.3949 66.3117 18.1698 67.0316 14.126 68.7995C9.49284 70.8407 2.63834 65.7832 2.62927 60.6711C2.61114 48.5059 2.89221 36.3316 2.49327 24.1754C2.33913 19.4734 4.28849 17.2864 8.18722 15.8648C17.118 12.6117 26.4296 11.2357 35.8319 10.5705C54.3917 9.24914 72.897 9.4405 91.1122 13.9512C94.8205 14.8807 98.683 15.6735 101.575 18.5621C103.28 19.3276 103.198 20.9314 103.207 22.3712C103.253 35.9306 103.253 49.49 103.216 63.0495ZM101.702 62.7943C101.693 61.3272 100.252 61.0903 99.1001 60.6073C95.7997 59.2404 92.5538 57.7369 89.181 56.5796C86.8871 55.7959 85.9169 54.7024 85.9985 52.1053C86.2071 45.5443 86.2071 38.956 86.0076 32.3858C85.926 29.8161 86.9143 28.6588 89.1356 27.784C92.8712 26.3169 96.5432 24.6949 100.134 22.9179C101.72 22.1342 102.654 21.059 100.95 20.3938H100.941C100.641 20.2753 100.27 20.1751 99.8073 20.0839C95.3373 22.116 90.9037 24.2483 86.3703 26.1438C84.3484 26.9912 83.3148 27.9936 83.3601 30.3993C83.5052 38.3363 83.4054 46.2733 83.4326 54.2194C83.4326 55.3494 83.0246 56.8256 84.4934 57.345C90.2055 59.3953 95.428 62.7852 101.593 63.5689M97.731 56.0146C97.9939 56.0146 98.2568 56.0146 98.5107 56.0055V28.5495C98.2568 28.5495 97.9939 28.5586 97.731 28.5586V56.0146ZM92.3997 50.702C92.6717 50.7202 92.9528 50.7384 93.2248 50.7567V33.3426C92.9528 33.3426 92.6717 33.3426 92.3997 33.3335V50.702ZM92.3997 33.3335V50.702C92.6717 50.7202 92.9528 50.7384 93.2248 50.7567V33.3426C92.9528 33.3426 92.6717 33.3426 92.3997 33.3335ZM97.731 28.5586V56.0146C97.9939 56.0146 98.2568 56.0146 98.5107 56.0055V28.5495C98.2568 28.5495 97.9939 28.5586 97.731 28.5586ZM101.702 62.7943C101.693 61.3272 100.252 61.0903 99.1001 60.6073C95.7997 59.2404 92.5538 57.7369 89.181 56.5796C86.8871 55.7959 85.9169 54.7024 85.9985 52.1053C86.2071 45.5443 86.2071 38.956 86.0076 32.3858C85.926 29.8161 86.9143 28.6588 89.1356 27.784C92.8712 26.3169 96.5432 24.6949 100.134 22.9179C101.72 22.1342 102.654 21.059 100.95 20.3938H100.941C100.641 20.2753 100.27 20.1751 99.8073 20.0839C95.3373 22.116 90.9037 24.2483 86.3703 26.1438C84.3484 26.9912 83.3148 27.9936 83.3601 30.3993C83.5052 38.3363 83.4054 46.2733 83.4326 54.2194C83.4326 55.3494 83.0246 56.8256 84.4934 57.345C90.2055 59.3953 95.428 62.7852 101.593 63.5689M97.731 28.5586V56.0146C97.9939 56.0146 98.2568 56.0146 98.5107 56.0055V28.5495C98.2568 28.5495 97.9939 28.5586 97.731 28.5586ZM92.3997 33.3335V50.702C92.6717 50.7202 92.9528 50.7384 93.2248 50.7567V33.3426C92.9528 33.3426 92.6717 33.3426 92.3997 33.3335ZM92.3997 33.3335V50.702C92.6717 50.7202 92.9528 50.7384 93.2248 50.7567V33.3426C92.9528 33.3426 92.6717 33.3426 92.3997 33.3335ZM97.731 28.5586V56.0146C97.9939 56.0146 98.2568 56.0146 98.5107 56.0055V28.5495C98.2568 28.5495 97.9939 28.5586 97.731 28.5586ZM101.702 62.7943C101.693 61.3272 100.252 61.0903 99.1001 60.6073C95.7997 59.2404 92.5538 57.7369 89.181 56.5796C86.8871 55.7959 85.9169 54.7024 85.9985 52.1053C86.2071 45.5443 86.2071 38.956 86.0076 32.3858C85.926 29.8161 86.9143 28.6588 89.1356 27.784C92.8712 26.3169 96.5432 24.6949 100.134 22.9179C101.72 22.1342 102.654 21.059 100.95 20.3938H100.941C100.641 20.2753 100.27 20.1751 99.8073 20.0839C95.3373 22.116 90.9037 24.2483 86.3703 26.1438C84.3484 26.9912 83.3148 27.9936 83.3601 30.3993C83.5052 38.3363 83.4054 46.2733 83.4326 54.2194C83.4326 55.3494 83.0246 56.8256 84.4934 57.345C90.2055 59.3953 95.428 62.7852 101.593 63.5689M101.702 62.7943C101.693 61.3272 100.252 61.0903 99.1001 60.6073C95.7997 59.2404 92.5538 57.7369 89.181 56.5796C86.8871 55.7959 85.9169 54.7024 85.9985 52.1053C86.2071 45.5443 86.2071 38.956 86.0076 32.3858C85.926 29.8161 86.9143 28.6588 89.1356 27.784C92.8712 26.3169 96.5432 24.6949 100.134 22.9179C101.72 22.1342 102.654 21.059 100.95 20.3938H100.941C100.641 20.2753 100.27 20.1751 99.8073 20.0839C95.3373 22.116 90.9037 24.2483 86.3703 26.1438C84.3484 26.9912 83.3148 27.9936 83.3601 30.3993C83.5052 38.3363 83.4054 46.2733 83.4326 54.2194C83.4326 55.3494 83.0246 56.8256 84.4934 57.345C90.2055 59.3953 95.428 62.7852 101.593 63.5689M97.731 28.5586V56.0146C97.9939 56.0146 98.2568 56.0146 98.5107 56.0055V28.5495C98.2568 28.5495 97.9939 28.5586 97.731 28.5586ZM92.3997 33.3335V50.702C92.6717 50.7202 92.9528 50.7384 93.2248 50.7567V33.3426C92.9528 33.3426 92.6717 33.3426 92.3997 33.3335ZM92.3997 33.3335V50.702C92.6717 50.7202 92.9528 50.7384 93.2248 50.7567V33.3426C92.9528 33.3426 92.6717 33.3426 92.3997 33.3335ZM97.731 28.5586V56.0146C97.9939 56.0146 98.2568 56.0146 98.5107 56.0055V28.5495C98.2568 28.5495 97.9939 28.5586 97.731 28.5586ZM101.702 62.7943C101.693 61.3272 100.252 61.0903 99.1001 60.6073C95.7997 59.2404 92.5538 57.7369 89.181 56.5796C86.8871 55.7959 85.9169 54.7024 85.9985 52.1053C86.2071 45.5443 86.2071 38.956 86.0076 32.3858C85.926 29.8161 86.9143 28.6588 89.1356 27.784C92.8712 26.3169 96.5432 24.6949 100.134 22.9179C101.72 22.1342 102.654 21.059 100.95 20.3938H100.941C100.641 20.2753 100.27 20.1751 99.8073 20.0839C95.3373 22.116 90.9037 24.2483 86.3703 26.1438C84.3484 26.9912 83.3148 27.9936 83.3601 30.3993C83.5052 38.3363 83.4054 46.2733 83.4326 54.2194C83.4326 55.3494 83.0246 56.8256 84.4934 57.345C90.2055 59.3953 95.428 62.7852 101.593 63.5689M101.702 62.7943C101.693 61.3272 100.252 61.0903 99.1001 60.6073C95.7997 59.2404 92.5538 57.7369 89.181 56.5796C86.8871 55.7959 85.9169 54.7024 85.9985 52.1053C86.2071 45.5443 86.2071 38.956 86.0076 32.3858C85.926 29.8161 86.9143 28.6588 89.1356 27.784C92.8712 26.3169 96.5432 24.6949 100.134 22.9179C101.72 22.1342 102.654 21.059 100.95 20.3938H100.941C100.641 20.2753 100.27 20.1751 99.8073 20.0839C95.3373 22.116 90.9037 24.2483 86.3703 26.1438C84.3484 26.9912 83.3148 27.9936 83.3601 30.3993C83.5052 38.3363 83.4054 46.2733 83.4326 54.2194C83.4326 55.3494 83.0246 56.8256 84.4934 57.345C90.2055 59.3953 95.428 62.7852 101.593 63.5689M97.731 28.5586V56.0146C97.9939 56.0146 98.2568 56.0146 98.5107 56.0055V28.5495C98.2568 28.5495 97.9939 28.5586 97.731 28.5586ZM92.3997 33.3335V50.702C92.6717 50.7202 92.9528 50.7384 93.2248 50.7567V33.3426C92.9528 33.3426 92.6717 33.3426 92.3997 33.3335Z" fill="white"/>
<path d="M104.214 89.4394C104.314 90.5602 104.241 91.7904 102.899 91.8542C101.467 91.9271 101.548 90.6149 101.458 89.5579C101.059 84.5278 99.5717 79.9168 96.3439 75.9347C95.8271 75.2968 94.186 74.7227 95.3647 73.5836C96.7247 72.2714 97.7946 73.456 98.6378 74.5313C102.083 78.8962 103.597 84.0083 104.214 89.4394Z" fill="white"/>
<path d="M11.2611 73.8206C6.80019 78.5955 4.46096 83.8079 4.36122 89.9224C4.34309 90.8974 4.05295 91.8634 3.0284 91.9818C1.83158 92.1276 1.62305 91.0888 1.64118 90.1593C1.81345 84.1086 3.68121 78.6867 7.70687 74.1122C8.05141 73.7203 8.68609 73.4743 9.22103 73.365C9.6109 73.2829 10.0733 73.5381 11.252 73.8115L11.2611 73.8206Z" fill="white"/>
<path d="M8.13288 28.6862H7.58887V55.969H8.13288V28.6862Z" fill="white"/>
<path d="M13.7815 33.4794V50.6565C13.5458 50.6657 13.301 50.6748 13.0562 50.6748V33.4156C13.301 33.443 13.5458 33.4612 13.7815 33.4794Z" fill="white"/>
<path d="M22.3587 42.5372C22.3587 47.3304 24.1993 53.5543 21.8873 56.5432C19.0947 60.1609 12.7842 61.0357 7.98785 63.0951C7.71585 63.2136 7.45291 63.3958 7.17184 63.4414C6.22889 63.6054 5.01394 64.4255 4.57873 62.8764C4.26139 61.7464 5.43101 61.391 6.18356 61.0721C9.75588 59.5503 13.3191 57.9739 16.9821 56.7163C19.3123 55.9235 20.2371 54.7754 20.1646 52.1965C19.9651 45.5991 19.956 38.9834 20.1646 32.3859C20.2462 29.7888 19.2216 28.668 16.9912 27.7932C13.2466 26.3261 9.60174 24.5947 5.92969 22.9362C5.10461 22.5626 4.17073 21.9703 4.62407 20.9315C5.08647 19.8653 6.12009 20.248 6.94517 20.6125C11.5964 22.6264 16.2205 24.704 20.8899 26.6815C22.667 27.4378 22.667 28.832 22.6489 30.3811C22.6126 34.4362 22.6398 38.4913 22.6398 42.5372H22.3497H22.3587Z" fill="white"/>
<path d="M92.3999 50.7021V33.3336C92.6719 33.3427 92.953 33.3427 93.225 33.3427V50.7568C92.953 50.7385 92.6719 50.7203 92.3999 50.7021Z" fill="white"/>
<path d="M97.7311 56.0147V28.5587C97.994 28.5587 98.257 28.5496 98.5108 28.5496V56.0056C98.257 56.0147 97.994 56.0147 97.7311 56.0147Z" fill="white"/>
<path d="M101.593 63.5689C100.805 62.9219 99.9795 62.3661 99.1091 61.8831C96.3166 60.3249 93.1976 59.4956 90.2327 58.3839C86.3703 56.935 84.9468 54.5111 85.0737 50.538C85.2369 45.5899 85.4183 40.6054 85.0284 35.6846C84.5932 30.1169 86.9687 26.9001 92.0098 25.1779C94.1315 24.458 96.1443 23.4374 98.1662 22.4624C98.7193 22.1981 99.1907 21.8974 99.4809 21.4782C99.7347 21.1137 99.8617 20.6672 99.8073 20.084C100.27 20.1751 100.641 20.2753 100.941 20.3938H100.95C102.654 21.059 101.72 22.1343 100.134 22.918C96.5432 24.6949 92.8712 26.3169 89.1357 27.7841C86.9143 28.6589 85.926 29.8162 86.0076 32.3859C86.2071 38.956 86.2071 45.5444 85.9985 52.1054C85.9169 54.7024 86.8871 55.796 89.181 56.5796C92.5538 57.7369 95.7998 59.2405 99.1001 60.6074C100.252 61.0903 101.693 61.3273 101.702 62.7944" fill="white"/>
<path d="M32.2688 32.076C28.9776 31.019 32.704 30.2718 32.3867 29.3423C34.336 30.3355 32.3413 31.1648 32.2688 32.076Z" fill="white"/>
<path d="M21.8873 56.5432C19.0947 60.1609 12.7842 61.0357 7.98785 63.0951C7.71585 63.2136 7.45291 63.3958 7.17184 63.4414C6.22889 63.6054 5.01394 64.4255 4.57873 62.8764C4.26139 61.7464 5.43101 61.391 6.18356 61.0721C9.75588 59.5503 13.3191 57.9739 16.9821 56.7163C19.3123 55.9235 20.2371 54.7754 20.1646 52.1965C19.9651 45.5991 19.956 38.9834 20.1646 32.3859C20.2462 29.7888 19.2216 28.668 16.9912 27.7932C13.2466 26.3261 9.60174 24.5947 5.92969 22.9362C5.10461 22.5626 4.17073 21.9703 4.62407 20.9315C5.08647 19.8653 6.12009 20.248 6.94517 20.6125C11.5964 22.6264 16.2205 24.704 20.8899 26.6815C22.667 27.4378 22.667 28.832 22.6489 30.3811C22.6126 34.4362 22.6398 38.4913 22.6398 42.5372H22.3497C22.3497 47.3304 24.1902 53.5543 21.8782 56.5432H21.8873Z" fill="white"/>
<path d="M101.702 62.7944C101.702 63.0222 101.666 63.2773 101.593 63.5689C95.428 62.7853 90.2055 59.3954 84.4934 57.3451C83.0246 56.8257 83.4326 55.3494 83.4326 54.2195C83.4054 46.2734 83.5051 38.3364 83.3601 30.3994C83.3147 27.9937 84.3484 26.9913 86.3703 26.1438C90.9037 24.2484 95.3373 22.1161 99.8073 20.084C100.27 20.1751 100.641 20.2753 100.941 20.3938H100.95C102.654 21.059 101.72 22.1343 100.134 22.918C96.5432 24.6949 92.8711 26.3169 89.1356 27.7841C86.9143 28.6589 85.926 29.8162 86.0076 32.3859C86.207 38.956 86.207 45.5444 85.9985 52.1054C85.9169 54.7024 86.8871 55.796 89.181 56.5796C92.5538 57.7369 95.7997 59.2405 99.1 60.6074C100.252 61.0903 101.693 61.3273 101.702 62.7944Z" fill="white"/>
<path d="M13.7815 33.4794V50.6565C13.5458 50.6657 13.301 50.6748 13.0562 50.6748V33.4156C13.301 33.443 13.5458 33.4612 13.7815 33.4794Z" fill="white"/>
<path d="M8.13288 28.6862H7.58887V55.969H8.13288V28.6862Z" fill="white"/>
<path d="M98.5108 28.5496V56.0056C98.257 56.0147 97.994 56.0147 97.7311 56.0147V28.5587C97.994 28.5587 98.257 28.5496 98.5108 28.5496Z" fill="white"/>
<path d="M93.225 33.3427V50.7568C92.953 50.7385 92.6719 50.7203 92.3999 50.7021V33.3336C92.6719 33.3427 92.953 33.3427 93.225 33.3427Z" fill="white"/>
</g>
<defs>
<clipPath id="clip0_97_145">
<rect width="106" height="92" fill="white"/>
</clipPath>
</defs>
</svg>
